<?xml version="1.0" encoding="UTF-8" standalone="no"?>
<!DOCTYPE svg PUBLIC "-//W3C//DTD SVG 1.1//EN" "http://www.w3.org/Graphics/SVG/1.1/DTD/svg11.dtd">
<!-- 由 Microsoft Visio, SVG Export 生成 6543211.svg Page-1 -->
<svg xmlns="http://www.w3.org/2000/svg" xmlns:xlink="http://www.w3.org/1999/xlink" xmlns:ev="http://www.w3.org/2001/xml-events"
		xmlns:v="http://schemas.microsoft.com/visio/2003/SVGExtensions/" width="8.26772in" height="11.6929in"
		viewBox="0 0 595.276 841.889" xml:space="preserve" color-interpolation-filters="sRGB" class="st22">
	<v:documentProperties v:langID="2052">
		<v:userDefs>
			<v:ud v:nameU="msvConvertTheme"/>
		</v:userDefs>
	</v:documentProperties>

	<style type="text/css">
	<![CDATA[
		.st1 {fill:none;stroke:none;stroke-width:1}
		.st2 {fill:none}
		.st3 {stroke:#000000;stroke-linecap:round;stroke-linejoin:round;stroke-width:0.749999}
		.st4 {fill:#7f7f7f;stroke:#000000;stroke-linecap:round;stroke-linejoin:round;stroke-width:0.306326}
		.st5 {fill:#7f7f7f;stroke:#999999;stroke-linecap:round;stroke-linejoin:round;stroke-width:0.0612652}
		.st6 {stroke:#494949;stroke-linecap:round;stroke-linejoin:round;stroke-width:0.0612652}
		.st7 {fill:#333333;stroke:#333333;stroke-linecap:round;stroke-linejoin:round;stroke-width:0.0612652}
		.st8 {fill:#999999;stroke:#999999;stroke-linecap:round;stroke-linejoin:round;stroke-width:0.0612652}
		.st9 {fill:#efefef;stroke:#0a0a0a;stroke-linecap:round;stroke-linejoin:round;stroke-width:0.0458601}
		.st10 {fill:#bc7e7e;stroke:#000000;stroke-linecap:round;stroke-linejoin:round;stroke-width:0.038989}
		.st11 {fill:#efefef;stroke:#0a0a0a;stroke-linecap:round;stroke-linejoin:round;stroke-width:0.134081}
		.st12 {fill:#000000;stroke:#0a0a0a;stroke-linecap:round;stroke-linejoin:round;stroke-width:0.0491389}
		.st13 {fill:#000000;stroke:#0a0a0a;stroke-linecap:round;stroke-linejoin:round;stroke-width:0.0494678}
		.st14 {fill:#efefef;stroke:#0a0a0a;stroke-linecap:round;stroke-linejoin:round;stroke-width:0.133827}
		.st15 {fill:#ffffff;stroke:none;stroke-linecap:round;stroke-linejoin:round;stroke-width:0.749999}
		.st16 {fill:none;stroke:none;stroke-linecap:round;stroke-linejoin:round;stroke-width:0.749999}
		.st17 {fill:#ffffff;font-family:Arial;font-size:0.885452em;font-weight:bold}
		.st18 {fill:#ffffff;font-family:Arial;font-size:0.798409em}
		.st19 {fill:#000000;stroke:#0a0a0a;stroke-linecap:round;stroke-linejoin:round;stroke-width:0.0388917}
		.st20 {fill:#ffffff;font-family:Arial;font-size:0.737em}
		.st21 {fill:#00ff00;stroke:#000000;stroke-linecap:round;stroke-linejoin:round;stroke-width:0.117772}
		.st22 {fill:none;fill-rule:evenodd;font-size:12px;overflow:visible;stroke-linecap:square;stroke-miterlimit:3}
	]]>
	</style>

	<g v:mID="0" v:index="1" v:groupContext="foregroundPage">
		<title>Page-1</title>
		<v:pageProperties v:drawingScale="0.0393701" v:pageScale="0.0393701" v:drawingUnits="24" v:shadowOffsetX="8.50393"
				v:shadowOffsetY="-8.50393"/>
		<v:layer v:name="Network" v:index="0"/>
		<g id="group1-1" transform="translate(0.122858,-789.437)" v:mID="1" v:groupContext="group">
			<title>工作表.2</title>
			<g id="group2-2" transform="translate(493.559,-22.981)" v:mID="2" v:groupContext="group">
				<title>工作表.4</title>
				<g id="shape3-3" v:mID="3" v:groupContext="shape">
					<title>工作表.3</title>
					<path d="M0 828.81 L0 841.89 L5.52 841.89 L0 828.81 Z" class="st1"/>
				</g>
				<g id="shape4-5" v:mID="4" v:groupContext="shape">
					<title>工作表.4</title>
					<path d="M0 828.81 L0 841.89 L5.52 841.89 L0 828.81 Z" class="st2"/>
					<path d="M0 828.81 L0 841.89 L5.52 841.89" class="st3"/>
				</g>
			</g>
			<g id="group5-8" transform="translate(499.075,-36.0564)" v:mID="5" v:groupContext="group">
				<title>工作表.5</title>
				<g id="shape6-9" v:mID="6" v:groupContext="shape">
					<title>工作表.6</title>
					<path d="M0 841.89 L10.89 841.89 L0 841.89 Z" class="st1"/>
				</g>
				<g id="shape7-11" v:mID="7" v:groupContext="shape">
					<title>工作表.7</title>
					<path d="M0 841.89 L10.89 841.89 L0 841.89 Z" class="st2"/>
					<path d="M0 841.89 L10.89 841.89" class="st3"/>
				</g>
			</g>
			<g id="group8-14" transform="translate(504.446,-22.981)" v:mID="8" v:groupContext="group">
				<title>工作表.6</title>
				<g id="shape9-15" v:mID="9" v:groupContext="shape">
					<title>工作表.9</title>
					<path d="M0 828.81 L0 841.89 L0 828.81 Z" class="st1"/>
				</g>
				<g id="shape10-17" v:mID="10" v:groupContext="shape">
					<title>工作表.10</title>
					<path d="M0 828.81 L0 841.89 L0 828.81 Z" class="st2"/>
					<path d="M0 828.81 L0 841.89" class="st3"/>
				</g>
			</g>
			<g id="group11-20" transform="translate(512.72,-22.981)" v:mID="11" v:groupContext="group">
				<title>工作表.7</title>
				<g id="shape12-21" v:mID="12" v:groupContext="shape">
					<title>工作表.12</title>
					<path d="M0 828.81 L0 841.89 L0 828.81 Z" class="st1"/>
				</g>
				<g id="shape13-23" v:mID="13" v:groupContext="shape">
					<title>工作表.13</title>
					<path d="M0 828.81 L0 841.89 L0 828.81 Z" class="st2"/>
					<path d="M0 828.81 L0 841.89" class="st3"/>
				</g>
			</g>
			<g id="group14-26" transform="translate(518.091,-22.981)" v:mID="14" v:groupContext="group">
				<title>工作表.8</title>
				<g id="shape15-27" v:mID="15" v:groupContext="shape">
					<title>工作表.15</title>
					<path d="M0 841.89 L0 828.81 L5.52 841.89 L11.03 828.81 L11.03 841.89 L0 841.89 Z" class="st1"/>
				</g>
				<g id="shape16-29" v:mID="16" v:groupContext="shape">
					<title>工作表.16</title>
					<path d="M0 841.89 L0 828.81 L5.52 841.89 L11.03 828.81 L11.03 841.89 L0 841.89 Z" class="st2"/>
					<path d="M0 841.89 L0 828.81 L5.52 841.89 L11.03 828.81 L11.03 841.89" class="st3"/>
				</g>
			</g>
			<g id="group17-32" transform="translate(531.736,-22.981)" v:mID="17" v:groupContext="group">
				<title>工作表.9</title>
				<g id="shape18-33" v:mID="18" v:groupContext="shape">
					<title>工作表.18</title>
					<path d="M0 841.89 L5.52 828.81 L11.03 841.89 L0 841.89 Z" class="st1"/>
				</g>
				<g id="shape19-35" v:mID="19" v:groupContext="shape">
					<title>工作表.19</title>
					<path d="M0 841.89 L5.52 828.81 L11.03 841.89 L0 841.89 Z" class="st2"/>
					<path d="M0 841.89 L5.52 828.81 L11.03 841.89" class="st3"/>
				</g>
			</g>
			<g id="group20-38" transform="translate(512.72,-22.981)" v:mID="20" v:groupContext="group">
				<title>工作表.10</title>
				<g id="shape21-39" v:mID="21" v:groupContext="shape">
					<title>工作表.21</title>
					<path d="M0 828.81 L0 841.89 L0 828.81 Z" class="st1"/>
				</g>
				<g id="shape22-41" v:mID="22" v:groupContext="shape">
					<title>工作表.22</title>
					<path d="M0 828.81 L0 841.89 L0 828.81 Z" class="st2"/>
					<path d="M0 828.81 L0 841.89" class="st3"/>
				</g>
			</g>
			<g id="group23-44" transform="translate(477.156,-22.981)" v:mID="23" v:groupContext="group">
				<title>工作表.11</title>
				<g id="shape24-45" v:mID="24" v:groupContext="shape">
					<title>工作表.24</title>
					<path d="M0 841.89 L5.52 828.81 L11.03 841.89 L0 841.89 Z" class="st1"/>
				</g>
				<g id="shape25-47" v:mID="25" v:groupContext="shape">
					<title>工作表.25</title>
					<path d="M0 841.89 L5.52 828.81 L11.03 841.89 L0 841.89 Z" class="st2"/>
					<path d="M0 841.89 L5.52 828.81 L11.03 841.89" class="st3"/>
				</g>
			</g>
			<g id="group26-50" transform="translate(533.187,-26.2499)" v:mID="26" v:groupContext="group">
				<title>工作表.12</title>
				<g id="shape27-51" v:mID="27" v:groupContext="shape">
					<title>工作表.27</title>
					<path d="M0 841.89 L8.13 841.89 L0 841.89 Z" class="st1"/>
				</g>
				<g id="shape28-53" v:mID="28" v:groupContext="shape">
					<title>工作表.28</title>
					<path d="M0 841.89 L8.13 841.89 L0 841.89 Z" class="st2"/>
					<path d="M0 841.89 L8.13 841.89" class="st3"/>
				</g>
			</g>
			<g id="group29-56" transform="translate(478.608,-26.2499)" v:mID="29" v:groupContext="group">
				<title>工作表.13</title>
				<g id="shape30-57" v:mID="30" v:groupContext="shape">
					<title>工作表.30</title>
					<path d="M0 841.89 L8.13 841.89 L0 841.89 Z" class="st1"/>
				</g>
				<g id="shape31-59" v:mID="31" v:groupContext="shape">
					<title>工作表.31</title>
					<path d="M0 841.89 L8.13 841.89 L0 841.89 Z" class="st2"/>
					<path d="M0 841.89 L8.13 841.89" class="st3"/>
				</g>
			</g>
			<g id="shape32-62" v:mID="32" v:groupContext="shape">
				<title>工作表.14</title>
				<path d="M594.93 789.44 L0 789.44 L0 841.89 L594.93 841.89 L594.93 789.44 Z" class="st4"/>
			</g>
			<g id="shape33-64" v:mID="33" v:groupContext="shape" transform="translate(28.9132,0)">
				<title>工作表.15</title>
				<path d="M537.1 789.44 L0 789.44 L0 841.89 L537.1 841.89 L537.1 789.44 Z" class="st4"/>
			</g>
			<g id="shape34-66" v:mID="34" v:groupContext="shape" transform="translate(466.04,-6.86265)">
				<title>工作表.16</title>
				<path d="M92.13 803.16 L0 803.16 L0 841.89 L92.13 841.89 L92.13 803.16 Z" class="st5"/>
			</g>
			<g id="group35-68" transform="translate(466.04,-6.86265)" v:mID="35" v:groupContext="group">
				<title>工作表.17</title>
				<g id="shape36-69" v:mID="36" v:groupContext="shape">
					<title>工作表.36</title>
					<path d="M0 803.16 L0 841.89 L92.13 841.89 L0 803.16 Z" class="st1"/>
				</g>
				<g id="shape37-71" v:mID="37" v:groupContext="shape">
					<title>工作表.37</title>
					<path d="M0 803.16 L0 841.89 L92.13 841.89 L0 803.16 Z" class="st2"/>
					<path d="M0 803.16 L0 841.89 L92.13 841.89" class="st6"/>
				</g>
			</g>
			<g id="shape38-74" v:mID="38" v:groupContext="shape" transform="translate(84.7793,-6.86265)">
				<title>工作表.18</title>
				<path d="M373.42 803.16 L0 803.16 L0 841.89 L373.42 841.89 L373.42 803.16 Z" class="st7"/>
			</g>
			<g id="shape39-76" v:mID="39" v:groupContext="shape" transform="translate(382.731,-9.3136)">
				<title>工作表.19</title>
				<path d="M56.85 808.07 L0 808.07 L0 841.89 L56.85 841.89 L56.85 808.07 Z" class="st8"/>
			</g>
			<g id="shape40-78" v:mID="40" v:groupContext="shape" transform="translate(351.552,-10.3835)">
				<title>工作表.20</title>
				<path d="M21.48 825.27 L0 825.27 L0 841.89 L21.48 841.89 L21.48 825.27 Z" class="st9"/>
			</g>
			<g id="shape41-80" v:mID="41" v:groupContext="shape" transform="translate(351.796,-28.0892)">
				<title>工作表.21</title>
				<path d="M20.99 837.31 L20.99 837.2 L20.95 837.09 L20.91 837.02 L20.74 836.88 L20.66 836.84 L20.53 836.8 L0.46 836.8
							 L0.33 836.84 L0.25 836.88 L0.08 837.02 L0.04 837.09 L0 837.2 L0 841.49 L0.04 841.6 L0.08 841.67 L0.25
							 841.82 L0.33 841.85 L0.46 841.89 L20.53 841.89 L20.66 841.85 L20.74 841.82 L20.91 841.67 L20.95 841.6
							 L20.99 841.49 L20.99 841.38 L20.99 837.31 Z" class="st10"/>
			</g>
			<g id="shape42-82" v:mID="42" v:groupContext="shape" transform="translate(85.317,-10.2997)">
				<title>工作表.22</title>
				<path d="M82.48 808.18 L0 808.18 L0 841.89 L82.48 841.89 L82.48 808.18 Z" class="st11"/>
			</g>
			<g id="shape43-84" v:mID="43" v:groupContext="shape" transform="translate(88.0926,-29.333)">
				<title>工作表.23</title>
				<v:custProps>
					<v:cp v:nameU="Row_1" v:lbl="portNum" v:type="0" v:langID="2052" v:val="VT4(1)"/>
					<v:cp v:nameU="Row_2" v:lbl="interfaceName" v:type="0" v:langID="2052" v:val="VT4(Ethernet0/3)"/>
				</v:custProps>
				<path d="M0 841.89 L0 834.57 L3.64 834.57 L3.64 830.93 L7.32 830.93 L7.32 827.25 L10.96 827.25 L10.96 830.93 L14.65
							 830.93 L14.65 834.57 L18.28 834.57 L18.28 841.89 L0 841.89 Z" class="st12"/>
			</g>
			<g id="shape44-86" v:mID="44" v:groupContext="shape" transform="translate(107.701,-29.333)">
				<title>工作表.24</title>
				<v:custProps>
					<v:cp v:nameU="Row_1" v:lbl="portNum" v:type="0" v:langID="2052" v:val="VT4(3)"/>
					<v:cp v:nameU="Row_2" v:lbl="interfaceName" v:type="0" v:langID="2052" v:val="VT4(Ethernet0/4)"/>
				</v:custProps>
				<path d="M0 841.89 L0 834.57 L3.69 834.57 L3.69 830.93 L7.42 830.93 L7.42 827.25 L11.11 827.25 L11.11 830.93 L14.84
							 830.93 L14.84 834.57 L18.53 834.57 L18.53 841.89 L0 841.89 Z" class="st13"/>
			</g>
			<g id="shape45-88" v:mID="45" v:groupContext="shape" transform="translate(127.31,-29.333)">
				<title>工作表.25</title>
				<v:custProps>
					<v:cp v:nameU="Row_1" v:lbl="portNum" v:type="0" v:langID="2052" v:val="VT4(5)"/>
					<v:cp v:nameU="Row_2" v:lbl="interfaceName" v:type="0" v:langID="2052" v:val="VT4(Ethernet0/1)"/>
				</v:custProps>
				<path d="M0 841.89 L0 834.57 L3.64 834.57 L3.64 830.93 L7.32 830.93 L7.32 827.25 L10.96 827.25 L10.96 830.93 L14.65
							 830.93 L14.65 834.57 L18.28 834.57 L18.28 841.89 L0 841.89 Z" class="st12"/>
			</g>
			<g id="shape46-90" v:mID="46" v:groupContext="shape" transform="translate(147.165,-29.333)">
				<title>工作表.26</title>
				<v:custProps>
					<v:cp v:nameU="Row_1" v:lbl="portNum" v:type="0" v:langID="2052" v:val="VT4(7)"/>
					<v:cp v:nameU="Row_2" v:lbl="interfaceName" v:type="0" v:langID="2052" v:val="VT4(Ethernet0/7)"/>
				</v:custProps>
				<path d="M0 841.89 L0 834.57 L3.64 834.57 L3.64 830.93 L7.32 830.93 L7.32 827.25 L10.96 827.25 L10.96 830.93 L14.65
							 830.93 L14.65 834.57 L18.28 834.57 L18.28 841.89 L0 841.89 Z" class="st12"/>
			</g>
			<g id="shape47-92" v:mID="47" v:groupContext="shape" transform="translate(88.0926,-10.1711)">
				<title>工作表.27</title>
				<v:custProps>
					<v:cp v:nameU="Row_1" v:lbl="portNum" v:type="0" v:langID="2052" v:val="VT4(2)"/>
					<v:cp v:nameU="Row_2" v:lbl="interfaceName" v:type="0" v:langID="2052" v:val="VT4(Ethernet0/2)"/>
				</v:custProps>
				<path d="M0 827.25 L0 834.57 L3.64 834.57 L3.64 838.2 L7.32 838.2 L7.32 841.89 L10.96 841.89 L10.96 838.2 L14.65
							 838.2 L14.65 834.57 L18.28 834.57 L18.28 827.25 L0 827.25 Z" class="st12"/>
			</g>
			<g id="shape48-94" v:mID="48" v:groupContext="shape" transform="translate(107.701,-10.1711)">
				<title>工作表.28</title>
				<v:custProps>
					<v:cp v:nameU="Row_1" v:lbl="portNum" v:type="0" v:langID="2052" v:val="VT4(4)"/>
					<v:cp v:nameU="Row_2" v:lbl="interfaceName" v:type="0" v:langID="2052" v:val="VT4(Ethernet0/5)"/>
				</v:custProps>
				<path d="M0 827.25 L0 834.57 L3.69 834.57 L3.69 838.2 L7.42 838.2 L7.42 841.89 L11.11 841.89 L11.11 838.2 L14.84
							 838.2 L14.84 834.57 L18.53 834.57 L18.53 827.25 L0 827.25 Z" class="st13"/>
			</g>
			<g id="shape49-96" v:mID="49" v:groupContext="shape" transform="translate(127.31,-10.1711)">
				<title>工作表.29</title>
				<v:custProps>
					<v:cp v:nameU="Row_1" v:lbl="portNum" v:type="0" v:langID="2052" v:val="VT4(6)"/>
					<v:cp v:nameU="Row_2" v:lbl="interfaceName" v:type="0" v:langID="2052" v:val="VT4(Ethernet0/6)"/>
				</v:custProps>
				<path d="M0 827.25 L0 834.57 L3.64 834.57 L3.64 838.2 L7.32 838.2 L7.32 841.89 L10.96 841.89 L10.96 838.2 L14.65
							 838.2 L14.65 834.57 L18.28 834.57 L18.28 827.25 L0 827.25 Z" class="st12"/>
			</g>
			<g id="shape50-98" v:mID="50" v:groupContext="shape" transform="translate(147.165,-10.1711)">
				<title>工作表.30</title>
				<v:custProps>
					<v:cp v:nameU="Row_1" v:lbl="portNum" v:type="0" v:langID="2052" v:val="VT4(8)"/>
					<v:cp v:nameU="Row_2" v:lbl="interfaceName" v:type="0" v:langID="2052" v:val="VT4(Ethernet0/8)"/>
				</v:custProps>
				<path d="M0 827.25 L0 834.57 L3.64 834.57 L3.64 838.2 L7.32 838.2 L7.32 841.89 L10.96 841.89 L10.96 838.2 L14.65
							 838.2 L14.65 834.57 L18.28 834.57 L18.28 827.25 L0 827.25 Z" class="st12"/>
			</g>
			<g id="shape51-100" v:mID="51" v:groupContext="shape" transform="translate(176.331,-10.2997)">
				<title>工作表.31</title>
				<path d="M82.24 808.18 L0 808.18 L0 841.89 L82.24 841.89 L82.24 808.18 Z" class="st14"/>
			</g>
			<g id="shape52-102" v:mID="52" v:groupContext="shape" transform="translate(178.765,-29.333)">
				<title>工作表.32</title>
				<v:custProps>
					<v:cp v:nameU="Row_1" v:lbl="portNum" v:type="0" v:langID="2052" v:val="VT4(9)"/>
					<v:cp v:nameU="Row_2" v:lbl="interfaceName" v:type="0" v:langID="2052" v:val="VT4(Ethernet0/9)"/>
				</v:custProps>
				<path d="M0 841.89 L0 834.57 L3.64 834.57 L3.64 830.93 L7.32 830.93 L7.32 827.25 L10.96 827.25 L10.96 830.93 L14.65
							 830.93 L14.65 834.57 L18.28 834.57 L18.28 841.89 L0 841.89 Z" class="st12"/>
			</g>
			<g id="shape53-104" v:mID="53" v:groupContext="shape" transform="translate(198.641,-29.333)">
				<title>工作表.33</title>
				<v:custProps>
					<v:cp v:nameU="Row_1" v:lbl="portNum" v:type="0" v:langID="2052" v:val="VT4(11)"/>
					<v:cp v:nameU="Row_2" v:lbl="interfaceName" v:type="0" v:langID="2052" v:val="VT4(Ethernet0/11)"/>
				</v:custProps>
				<path d="M0 841.89 L0 834.57 L3.69 834.57 L3.69 830.93 L7.42 830.93 L7.42 827.25 L11.11 827.25 L11.11 830.93 L14.84
							 830.93 L14.84 834.57 L18.53 834.57 L18.53 841.89 L0 841.89 Z" class="st13"/>
			</g>
			<g id="shape54-106" v:mID="54" v:groupContext="shape" transform="translate(218.263,-29.333)">
				<title>工作表.34</title>
				<v:custProps>
					<v:cp v:nameU="Row_1" v:lbl="portNum" v:type="0" v:langID="2052" v:val="VT4(13)"/>
					<v:cp v:nameU="Row_2" v:lbl="interfaceName" v:type="0" v:langID="2052" v:val="VT4(Ethernet0/13)"/>
				</v:custProps>
				<path d="M0 841.89 L0 834.57 L3.69 834.57 L3.69 830.93 L7.42 830.93 L7.42 827.25 L11.11 827.25 L11.11 830.93 L14.84
							 830.93 L14.84 834.57 L18.53 834.57 L18.53 841.89 L0 841.89 Z" class="st13"/>
			</g>
			<g id="shape55-108" v:mID="55" v:groupContext="shape" transform="translate(238.084,-29.333)">
				<title>工作表.35</title>
				<v:custProps>
					<v:cp v:nameU="Row_1" v:lbl="portNum" v:type="0" v:langID="2052" v:val="VT4(15)"/>
					<v:cp v:nameU="Row_2" v:lbl="interfaceName" v:type="0" v:langID="2052" v:val="VT4(Ethernet0/15)"/>
				</v:custProps>
				<path d="M0 841.89 L0 834.57 L3.69 834.57 L3.69 830.93 L7.42 830.93 L7.42 827.25 L11.11 827.25 L11.11 830.93 L14.84
							 830.93 L14.84 834.57 L18.53 834.57 L18.53 841.89 L0 841.89 Z" class="st13"/>
			</g>
			<g id="shape56-110" v:mID="56" v:groupContext="shape" transform="translate(178.765,-10.1711)">
				<title>工作表.36</title>
				<v:custProps>
					<v:cp v:nameU="Row_1" v:lbl="portNum" v:type="0" v:langID="2052" v:val="VT4(10)"/>
					<v:cp v:nameU="Row_2" v:lbl="interfaceName" v:type="0" v:langID="2052" v:val="VT4(Ethernet0/10)"/>
				</v:custProps>
				<path d="M0 827.25 L0 834.57 L3.64 834.57 L3.64 838.2 L7.32 838.2 L7.32 841.89 L10.96 841.89 L10.96 838.2 L14.65
							 838.2 L14.65 834.57 L18.28 834.57 L18.28 827.25 L0 827.25 Z" class="st12"/>
			</g>
			<g id="shape57-112" v:mID="57" v:groupContext="shape" transform="translate(198.641,-10.1711)">
				<title>工作表.37</title>
				<v:custProps>
					<v:cp v:nameU="Row_1" v:lbl="portNum" v:type="0" v:langID="2052" v:val="VT4(12)"/>
					<v:cp v:nameU="Row_2" v:lbl="interfaceName" v:type="0" v:langID="2052" v:val="VT4(Ethernet0/12)"/>
				</v:custProps>
				<path d="M0 827.25 L0 834.57 L3.69 834.57 L3.69 838.2 L7.42 838.2 L7.42 841.89 L11.11 841.89 L11.11 838.2 L14.84
							 838.2 L14.84 834.57 L18.53 834.57 L18.53 827.25 L0 827.25 Z" class="st13"/>
			</g>
			<g id="shape58-114" v:mID="58" v:groupContext="shape" transform="translate(218.263,-10.1711)">
				<title>工作表.38</title>
				<v:custProps>
					<v:cp v:nameU="Row_1" v:lbl="portNum" v:type="0" v:langID="2052" v:val="VT4(14)"/>
					<v:cp v:nameU="Row_2" v:lbl="interfaceName" v:type="0" v:langID="2052" v:val="VT4(Ethernet0/14)"/>
				</v:custProps>
				<path d="M0 827.25 L0 834.57 L3.69 834.57 L3.69 838.2 L7.42 838.2 L7.42 841.89 L11.11 841.89 L11.11 838.2 L14.84
							 838.2 L14.84 834.57 L18.53 834.57 L18.53 827.25 L0 827.25 Z" class="st13"/>
			</g>
			<g id="shape59-116" v:mID="59" v:groupContext="shape" transform="translate(238.084,-10.1711)">
				<title>工作表.39</title>
				<v:custProps>
					<v:cp v:nameU="Row_1" v:lbl="portNum" v:type="0" v:langID="2052" v:val="VT4(16)"/>
					<v:cp v:nameU="Row_2" v:lbl="interfaceName" v:type="0" v:langID="2052" v:val="VT4(Ethernet0/16)"/>
				</v:custProps>
				<path d="M0 827.25 L0 834.57 L3.69 834.57 L3.69 838.2 L7.42 838.2 L7.42 841.89 L11.11 841.89 L11.11 838.2 L14.84
							 838.2 L14.84 834.57 L18.53 834.57 L18.53 827.25 L0 827.25 Z" class="st13"/>
			</g>
			<g id="shape60-118" v:mID="60" v:groupContext="shape" transform="translate(266.985,-10.2997)">
				<title>工作表.40</title>
				<path d="M82.48 808.18 L0 808.18 L0 841.89 L82.48 841.89 L82.48 808.18 Z" class="st11"/>
			</g>
			<g id="shape61-120" v:mID="61" v:groupContext="shape" transform="translate(269.46,-29.333)">
				<title>工作表.41</title>
				<v:custProps>
					<v:cp v:nameU="Row_1" v:lbl="portNum" v:type="0" v:langID="2052" v:val="VT4(17)"/>
					<v:cp v:nameU="Row_2" v:lbl="interfaceName" v:type="0" v:langID="2052" v:val="VT4(Ethernet0/17)"/>
				</v:custProps>
				<path d="M0 841.89 L0 834.57 L3.69 834.57 L3.69 830.93 L7.42 830.93 L7.42 827.25 L11.11 827.25 L11.11 830.93 L14.84
							 830.93 L14.84 834.57 L18.53 834.57 L18.53 841.89 L0 841.89 Z" class="st13"/>
			</g>
			<g id="shape62-122" v:mID="62" v:groupContext="shape" transform="translate(289.332,-29.333)">
				<title>工作表.42</title>
				<v:custProps>
					<v:cp v:nameU="Row_1" v:lbl="portNum" v:type="0" v:langID="2052" v:val="VT4(19)"/>
					<v:cp v:nameU="Row_2" v:lbl="interfaceName" v:type="0" v:langID="2052" v:val="VT4(Ethernet0/19)"/>
				</v:custProps>
				<path d="M0 841.89 L0 834.57 L3.69 834.57 L3.69 830.93 L7.42 830.93 L7.42 827.25 L11.11 827.25 L11.11 830.93 L14.84
							 830.93 L14.84 834.57 L18.53 834.57 L18.53 841.89 L0 841.89 Z" class="st13"/>
			</g>
			<g id="shape63-124" v:mID="63" v:groupContext="shape" transform="translate(308.901,-29.333)">
				<title>工作表.43</title>
				<v:custProps>
					<v:cp v:nameU="Row_1" v:lbl="portNum" v:type="0" v:langID="2052" v:val="VT4(21)"/>
					<v:cp v:nameU="Row_2" v:lbl="interfaceName" v:type="0" v:langID="2052" v:val="VT4(Ethernet0/21)"/>
				</v:custProps>
				<path d="M0 841.89 L0 834.57 L3.64 834.57 L3.64 830.93 L7.32 830.93 L7.32 827.25 L10.96 827.25 L10.96 830.93 L14.65
							 830.93 L14.65 834.57 L18.28 834.57 L18.28 841.89 L0 841.89 Z" class="st12"/>
			</g>
			<g id="shape64-126" v:mID="64" v:groupContext="shape" transform="translate(328.775,-29.333)">
				<title>工作表.44</title>
				<v:custProps>
					<v:cp v:nameU="Row_1" v:lbl="portNum" v:type="0" v:langID="2052" v:val="VT4(23)"/>
					<v:cp v:nameU="Row_2" v:lbl="interfaceName" v:type="0" v:langID="2052" v:val="VT4(Ethernet0/23)"/>
				</v:custProps>
				<path d="M0 841.89 L0 834.57 L3.69 834.57 L3.69 830.93 L7.42 830.93 L7.42 827.25 L11.11 827.25 L11.11 830.93 L14.84
							 830.93 L14.84 834.57 L18.53 834.57 L18.53 841.89 L0 841.89 Z" class="st13"/>
			</g>
			<g id="shape65-128" v:mID="65" v:groupContext="shape" transform="translate(269.46,-10.1711)">
				<title>工作表.45</title>
				<v:custProps>
					<v:cp v:nameU="Row_1" v:lbl="portNum" v:type="0" v:langID="2052" v:val="VT4(18)"/>
					<v:cp v:nameU="Row_2" v:lbl="interfaceName" v:type="0" v:langID="2052" v:val="VT4(Ethernet0/18)"/>
				</v:custProps>
				<path d="M0 827.25 L0 834.57 L3.69 834.57 L3.69 838.2 L7.42 838.2 L7.42 841.89 L11.11 841.89 L11.11 838.2 L14.84
							 838.2 L14.84 834.57 L18.53 834.57 L18.53 827.25 L0 827.25 Z" class="st13"/>
			</g>
			<g id="shape66-130" v:mID="66" v:groupContext="shape" transform="translate(289.332,-10.1711)">
				<title>工作表.46</title>
				<v:custProps>
					<v:cp v:nameU="Row_1" v:lbl="portNum" v:type="0" v:langID="2052" v:val="VT4(20)"/>
					<v:cp v:nameU="Row_2" v:lbl="interfaceName" v:type="0" v:langID="2052" v:val="VT4(Ethernet0/20)"/>
				</v:custProps>
				<path d="M0 827.25 L0 834.57 L3.69 834.57 L3.69 838.2 L7.42 838.2 L7.42 841.89 L11.11 841.89 L11.11 838.2 L14.84
							 838.2 L14.84 834.57 L18.53 834.57 L18.53 827.25 L0 827.25 Z" class="st13"/>
			</g>
			<g id="shape67-132" v:mID="67" v:groupContext="shape" transform="translate(308.901,-10.1711)">
				<title>工作表.47</title>
				<v:custProps>
					<v:cp v:nameU="Row_1" v:lbl="portNum" v:type="0" v:langID="2052" v:val="VT4(22)"/>
					<v:cp v:nameU="Row_2" v:lbl="interfaceName" v:type="0" v:langID="2052" v:val="VT4(Ethernet0/22)"/>
				</v:custProps>
				<path d="M0 827.25 L0 834.57 L3.64 834.57 L3.64 838.2 L7.32 838.2 L7.32 841.89 L10.96 841.89 L10.96 838.2 L14.65
							 838.2 L14.65 834.57 L18.28 834.57 L18.28 827.25 L0 827.25 Z" class="st12"/>
			</g>
			<g id="shape68-134" v:mID="68" v:groupContext="shape" transform="translate(328.775,-10.1711)">
				<title>工作表.48</title>
				<v:custProps>
					<v:cp v:nameU="Row_1" v:lbl="portNum" v:type="0" v:langID="2052" v:val="VT4(24)"/>
					<v:cp v:nameU="Row_2" v:lbl="interfaceName" v:type="0" v:langID="2052" v:val="VT4(Ethernet0/24)"/>
				</v:custProps>
				<path d="M0 827.25 L0 834.57 L3.69 834.57 L3.69 838.2 L7.42 838.2 L7.42 841.89 L11.11 841.89 L11.11 838.2 L14.84
							 838.2 L14.84 834.57 L18.53 834.57 L18.53 827.25 L0 827.25 Z" class="st13"/>
			</g>
			<g id="shape69-136" v:mID="69" v:groupContext="shape" transform="translate(482.963,-27.4018)">
				<title>工作表.49</title>
				<path d="M1.49 832.81 L1.49 833.64 L1.37 833.95 L1.37 835.29 L1.24 835.7 L1.24 837.35 L1.12 837.76 L1.12 839 L0.99
							 839.41 L0.99 840.76 L0.87 841.06 L0.87 841.89 L0.62 841.89 L0.62 841.06 L0.5 840.76 L0.5 839.41 L0.37
							 839 L0.37 837.35 L0.25 836.94 L0.25 835.7 L0.12 835.29 L0.12 833.95 L0 833.64 L0 832.61 L0.12 832.61
							 L0.12 832.5 L0.37 832.3 L0.62 832.3 L0.74 832.19 L0.99 832.19 L0.99 832.3 L1.24 832.3 L1.49 832.5 L1.49
							 832.71 L1.49 832.81 Z" class="st15"/>
			</g>
			<g id="shape70-138" v:mID="70" v:groupContext="shape" transform="translate(481.225,-27.4018)">
				<title>工作表.50</title>
				<path d="M1.49 833.12 L1.49 833.95 L1.61 834.15 L1.61 835.49 L1.74 835.91 L1.74 837.14 L1.86 837.56 L1.86 839.1 L1.99
							 839.52 L1.99 840.86 L2.11 841.06 L2.11 841.89 L1.99 841.89 L1.99 841.68 L1.86 841.48 L1.86 841.06 L1.74
							 840.86 L1.74 840.55 L1.49 839.93 L1.49 839.52 L1.37 839.1 L1.24 838.79 L1.12 838.38 L1.12 837.97 L0.87
							 837.14 L0.87 836.73 L0.74 836.32 L0.62 836.01 L0.5 835.6 L0.5 835.18 L0.37 834.87 L0.37 834.57 L0.25
							 834.26 L0.12 834.05 L0.12 833.64 L0 833.43 L0 832.91 L0.12 832.81 L0.12 832.71 L0.25 832.71 L0.25 832.61
							 L0.5 832.61 L0.5 832.5 L0.99 832.5 L1.12 832.61 L1.24 832.61 L1.24 832.71 L1.37 832.81 L1.37 832.91
							 L1.49 832.91 L1.49 833.02 L1.49 833.12 Z" class="st15"/>
			</g>
			<g id="shape71-140" v:mID="71" v:groupContext="shape" transform="translate(479.363,-27.4018)">
				<title>工作表.51</title>
				<path d="M1.37 833.64 L1.37 833.84 L1.49 833.95 L1.49 834.36 L1.74 834.98 L1.74 835.18 L1.86 835.6 L1.86 835.91 L1.99
							 836.22 L2.23 837.04 L2.23 837.35 L2.48 838.18 L2.48 838.49 L2.73 839.31 L2.85 839.62 L2.85 839.93 L2.98
							 840.34 L3.1 840.65 L3.1 840.86 L3.23 841.17 L3.23 841.58 L3.35 841.68 L3.35 841.89 L3.23 841.89 L3.23
							 841.79 L3.1 841.68 L3.1 841.58 L2.98 841.37 L2.98 841.17 L2.85 840.96 L2.23 839.41 L2.11 839 L1.86 838.69
							 L1.74 838.28 L1.61 837.97 L1.37 837.14 L1.12 836.83 L0.99 836.42 L0.37 834.87 L0.25 834.67 L0.25 834.46
							 L0.12 834.26 L0.12 834.15 L0 834.05 L0 833.53 L0.12 833.53 L0.12 833.43 L0.37 833.22 L0.5 833.22 L0.62
							 833.12 L0.87 833.12 L0.87 833.22 L1.12 833.22 L1.12 833.33 L1.24 833.33 L1.24 833.43 L1.37 833.53 L1.37
							 833.64 Z" class="st15"/>
			</g>
			<g id="shape72-142" v:mID="72" v:groupContext="shape" transform="translate(478.122,-27.4018)">
				<title>工作表.52</title>
				<path d="M1.37 834.36 L1.37 834.46 L1.49 834.57 L1.49 834.67 L1.61 834.87 L1.61 835.08 L1.86 835.49 L1.86 835.8 L2.36
							 837.04 L2.48 837.45 L2.61 837.76 L2.85 838.18 L3.1 838.79 L3.23 839.21 L3.72 840.45 L3.72 840.76 L3.97
							 841.17 L3.97 841.37 L4.1 841.58 L4.1 841.68 L4.22 841.79 L4.22 841.89 L4.1 841.89 L4.1 841.79 L3.97
							 841.68 L3.97 841.58 L3.85 841.37 L3.72 841.27 L3.6 841.06 L3.48 840.76 L3.35 840.55 L3.1 840.24 L2.85
							 839.62 L2.61 839.31 L2.48 839 L2.23 838.69 L2.11 838.38 L1.86 837.97 L1.61 837.66 L1.49 837.35 L1.24
							 837.04 L0.99 836.42 L0.74 836.11 L0.62 835.91 L0.5 835.6 L0.37 835.39 L0.25 835.29 L0.12 835.08 L0.12
							 834.98 L0 834.87 L0 834.26 L0.12 834.26 L0.12 834.15 L0.25 834.15 L0.25 834.05 L0.5 834.05 L0.62 833.95
							 L0.87 833.95 L0.87 834.05 L1.12 834.05 L1.24 834.15 L1.24 834.26 L1.37 834.26 L1.37 834.36 Z"
						class="st15"/>
			</g>
			<g id="shape73-144" v:mID="73" v:groupContext="shape" transform="translate(477.005,-27.2987)">
				<title>工作表.53</title>
				<path d="M1.24 835.49 L1.24 835.6 L1.37 835.7 L1.37 835.8 L1.49 835.91 L2.11 836.94 L2.36 837.56 L2.61 837.76 L2.73
							 838.07 L2.98 838.38 L3.23 839 L3.48 839.31 L3.6 839.62 L3.85 839.83 L4.1 840.45 L4.72 841.48 L4.84 841.58
							 L4.84 841.68 L4.96 841.79 L4.96 841.89 L4.84 841.89 L4.84 841.79 L4.72 841.79 L4.59 841.68 L4.59 841.48
							 L4.34 841.37 L3.97 840.76 L3.72 840.55 L3.6 840.24 L3.35 840.03 L3.1 839.72 L2.98 839.52 L2.73 839.21
							 L2.48 839 L1.99 838.38 L1.86 838.18 L1.61 837.87 L1.37 837.66 L1.24 837.35 L0.99 837.14 L0.62 836.53
							 L0.37 836.42 L0.37 836.22 L0.25 836.11 L0.12 836.11 L0.12 835.91 L0 835.8 L0 835.6 L0.12 835.6 L0.12
							 835.39 L0.25 835.39 L0.25 835.29 L0.5 835.29 L0.5 835.18 L0.74 835.18 L0.87 835.29 L0.99 835.29 L1.12
							 835.39 L1.24 835.39 L1.24 835.49 Z" class="st15"/>
			</g>
			<g id="shape74-146" v:mID="74" v:groupContext="shape" transform="translate(476.508,-27.1955)">
				<title>工作表.54</title>
				<path d="M0.99 837.04 L0.99 837.14 L1.12 837.14 L1.12 837.25 L1.37 837.45 L1.49 837.66 L1.61 837.76 L1.99 838.38
							 L2.23 838.59 L2.36 838.79 L2.61 839 L2.73 839.21 L2.98 839.52 L3.23 839.93 L3.48 840.14 L3.6 840.34
							 L3.85 840.55 L4.22 841.17 L4.34 841.27 L4.47 841.48 L4.72 841.68 L4.72 841.79 L4.84 841.79 L4.84 841.89
							 L4.72 841.89 L4.47 841.68 L4.47 841.58 L4.34 841.48 L4.1 841.37 L3.97 841.17 L3.23 840.55 L3.1 840.34
							 L2.61 839.93 L2.48 839.72 L1.74 839.1 L1.61 838.9 L0.87 838.28 L0.74 838.07 L0.5 837.97 L0.37 837.87
							 L0.37 837.76 L0 837.45 L0 837.14 L0.25 836.94 L0.37 836.94 L0.37 836.83 L0.74 836.83 L0.87 836.94 L0.99
							 837.04 Z" class="st15"/>
			</g>
			<g id="shape75-148" v:mID="75" v:groupContext="shape" transform="translate(476.384,-26.9892)">
				<title>工作表.55</title>
				<path d="M0.87 838.38 L1.49 838.9 L1.61 839.1 L1.86 839.31 L1.99 839.52 L2.23 839.62 L2.36 839.83 L2.61 839.93 L2.85
							 840.34 L3.1 840.45 L3.23 840.65 L3.48 840.76 L3.6 840.96 L3.85 841.17 L3.97 841.37 L4.59 841.89 L4.47
							 841.89 L4.34 841.79 L4.22 841.79 L4.22 841.68 L4.1 841.58 L3.97 841.58 L3.85 841.48 L3.6 841.37 L3.1
							 840.96 L2.85 840.86 L2.36 840.45 L2.11 840.34 L1.74 840.03 L1.49 839.93 L0.99 839.52 L0.74 839.41 L0.62
							 839.31 L0.5 839.31 L0.37 839.21 L0.37 839.1 L0.25 839.1 L0 838.9 L0 838.49 L0.12 838.49 L0.12 838.38
							 L0.25 838.38 L0.25 838.28 L0.74 838.28 L0.87 838.38 Z" class="st15"/>
			</g>
			<g id="shape76-150" v:mID="76" v:groupContext="shape" transform="translate(484.08,-27.4018)">
				<title>工作表.56</title>
				<path d="M0.62 833.12 L0.62 833.95 L0.5 834.15 L0.5 835.49 L0.37 835.91 L0.37 837.56 L0.25 837.87 L0.25 839.1 L0.12
							 839.52 L0.12 840.86 L0 841.06 L0 841.89 L0.12 841.89 L0.12 841.68 L0.25 841.48 L0.25 841.06 L0.37 840.86
							 L0.5 840.55 L0.5 840.24 L0.62 839.93 L0.62 839.52 L0.74 839.1 L0.87 838.79 L0.99 838.38 L0.99 837.97
							 L1.24 837.14 L1.24 836.73 L1.37 836.32 L1.49 836.01 L1.61 835.6 L1.61 835.18 L1.86 834.57 L1.86 834.26
							 L1.99 834.05 L1.99 833.64 L2.11 833.43 L2.11 832.91 L1.99 832.81 L1.99 832.71 L1.86 832.71 L1.86 832.61
							 L1.61 832.61 L1.61 832.5 L1.12 832.5 L0.99 832.61 L0.87 832.61 L0.87 832.71 L0.74 832.81 L0.74 832.91
							 L0.62 832.91 L0.62 833.02 L0.62 833.12 Z" class="st15"/>
			</g>
			<g id="shape77-152" v:mID="77" v:groupContext="shape" transform="translate(484.576,-27.4018)">
				<title>工作表.57</title>
				<path d="M1.99 833.64 L1.99 833.84 L1.86 833.95 L1.86 834.36 L1.74 834.67 L1.74 834.98 L1.61 835.18 L1.49 835.6 L1.49
							 835.91 L1.37 836.22 L1.12 837.04 L1.12 837.35 L0.87 838.18 L0.87 838.49 L0.62 839.31 L0.5 839.62 L0.5
							 839.93 L0.37 840.34 L0.37 840.65 L0.25 840.86 L0.12 841.17 L0.12 841.58 L0 841.68 L0 841.89 L0.12 841.89
							 L0.12 841.79 L0.25 841.68 L0.25 841.58 L0.37 841.37 L0.37 841.17 L0.5 840.96 L1.12 839.41 L1.24 839
							 L1.49 838.69 L1.61 838.28 L1.74 837.97 L1.99 837.14 L2.23 836.83 L2.36 836.42 L2.98 834.87 L3.1 834.67
							 L3.1 834.46 L3.23 834.26 L3.23 834.15 L3.35 834.05 L3.35 833.53 L3.23 833.53 L3.23 833.43 L2.98 833.22
							 L2.85 833.22 L2.73 833.12 L2.48 833.12 L2.48 833.22 L2.23 833.22 L2.23 833.33 L2.11 833.33 L2.11 833.43
							 L1.99 833.53 L1.99 833.64 Z" class="st15"/>
			</g>
			<g id="shape78-154" v:mID="78" v:groupContext="shape" transform="translate(485.073,-27.4018)">
				<title>工作表.58</title>
				<path d="M2.98 834.36 L2.98 834.46 L2.85 834.57 L2.85 834.67 L2.73 834.87 L2.73 835.08 L2.48 835.49 L1.86 837.04
							 L1.74 837.45 L1.61 837.76 L1.49 838.18 L1.24 838.79 L1.12 839.21 L0.5 840.76 L0.25 841.17 L0.25 841.37
							 L0.12 841.58 L0.12 841.68 L0 841.79 L0 841.89 L0.12 841.89 L0.12 841.79 L0.25 841.68 L0.25 841.58 L0.37
							 841.37 L0.5 841.27 L0.62 841.06 L0.74 840.76 L0.87 840.55 L1.12 840.24 L1.37 839.62 L1.61 839.31 L1.74
							 839 L2.23 838.38 L2.36 837.97 L2.61 837.66 L2.73 837.35 L2.98 837.04 L3.23 836.42 L3.48 836.11 L3.6
							 835.91 L3.72 835.6 L3.85 835.39 L3.97 835.29 L4.1 835.08 L4.1 834.98 L4.22 834.87 L4.22 834.26 L4.1
							 834.26 L4.1 834.15 L3.97 834.15 L3.97 834.05 L3.72 834.05 L3.72 833.95 L3.48 833.95 L3.35 834.05 L3.1
							 834.05 L3.1 834.15 L2.98 834.26 L2.98 834.36 Z" class="st15"/>
			</g>
			<g id="shape79-156" v:mID="79" v:groupContext="shape" transform="translate(485.321,-27.2987)">
				<title>工作表.59</title>
				<path d="M3.85 835.49 L3.85 835.6 L3.72 835.7 L3.72 835.8 L3.6 835.91 L2.98 836.94 L2.85 837.25 L2.61 837.56 L2.48
							 837.76 L2.23 838.07 L1.99 838.69 L1.74 839 L1.61 839.31 L1.37 839.62 L1.24 839.83 L0.99 840.14 L0.87
							 840.45 L0.25 841.48 L0.12 841.58 L0.12 841.68 L0 841.79 L0 841.89 L0.25 841.89 L0.25 841.79 L0.37 841.79
							 L0.5 841.68 L0.5 841.48 L0.74 841.37 L1.12 840.76 L1.37 840.55 L1.49 840.24 L1.74 840.03 L1.99 839.72
							 L2.11 839.52 L2.36 839.21 L2.61 839 L3.1 838.38 L3.23 838.18 L3.48 837.87 L3.72 837.66 L3.85 837.35
							 L4.1 837.14 L4.47 836.53 L4.72 836.42 L4.72 836.22 L4.84 836.11 L4.96 836.11 L4.96 835.91 L5.09 835.91
							 L5.09 835.49 L4.96 835.49 L4.96 835.39 L4.84 835.39 L4.84 835.29 L4.72 835.29 L4.59 835.18 L4.34 835.18
							 L4.22 835.29 L4.1 835.29 L3.97 835.39 L3.85 835.39 L3.85 835.49 Z" class="st15"/>
			</g>
			<g id="shape80-158" v:mID="80" v:groupContext="shape" transform="translate(485.942,-27.1955)">
				<title>工作表.60</title>
				<path d="M3.85 837.04 L3.85 837.14 L3.72 837.14 L3.72 837.25 L3.48 837.45 L3.35 837.66 L3.23 837.76 L2.85 838.38
							 L2.61 838.59 L2.48 838.79 L2.23 839 L2.11 839.21 L1.99 839.52 L1.74 839.72 L1.61 839.93 L1.37 840.14
							 L1.24 840.34 L0.99 840.55 L0.62 841.17 L0.5 841.27 L0.37 841.48 L0.12 841.68 L0.12 841.79 L0 841.79
							 L0 841.89 L0.12 841.89 L0.37 841.68 L0.37 841.58 L0.5 841.48 L0.74 841.37 L0.87 841.17 L1.61 840.55
							 L1.74 840.34 L2.48 839.72 L2.61 839.52 L3.1 839.1 L3.23 838.9 L3.97 838.28 L4.1 838.07 L4.34 837.97
							 L4.47 837.87 L4.47 837.76 L4.84 837.45 L4.84 837.14 L4.59 836.94 L4.47 836.94 L4.47 836.83 L4.1 836.83
							 L3.97 836.94 L3.85 837.04 Z" class="st15"/>
			</g>
			<g id="shape81-160" v:mID="81" v:groupContext="shape" transform="translate(486.438,-26.9892)">
				<title>工作表.61</title>
				<path d="M3.72 838.38 L3.1 838.9 L2.98 839.1 L2.73 839.31 L2.61 839.52 L2.36 839.62 L2.23 839.83 L1.99 839.93 L1.74
							 840.34 L1.49 840.45 L1.37 840.65 L1.12 840.76 L0.99 840.96 L0.74 841.17 L0.62 841.37 L0 841.89 L0.25
							 841.89 L0.62 841.58 L0.74 841.58 L0.87 841.48 L1.12 841.37 L1.24 841.27 L1.37 841.06 L1.61 840.96 L1.74
							 840.86 L1.99 840.76 L2.11 840.55 L2.61 840.34 L2.73 840.14 L2.98 840.03 L3.1 839.93 L3.35 839.83 L3.48
							 839.62 L3.6 839.52 L3.85 839.41 L3.97 839.31 L4.1 839.31 L4.59 838.9 L4.59 838.49 L4.34 838.28 L3.85
							 838.28 L3.72 838.38 Z" class="st15"/>
			</g>
			<g id="shape82-162" v:mID="82" v:groupContext="shape" transform="translate(487.059,-26.886)">
				<title>工作表.62</title>
				<path d="M2.61 839.93 L2.48 839.93 L2.48 840.03 L2.36 840.14 L2.23 840.14 L2.23 840.24 L2.11 840.34 L1.99 840.34
							 L1.24 840.96 L1.12 840.96 L0.5 841.48 L0.37 841.48 L0.25 841.58 L0.25 841.68 L0.12 841.68 L0 841.79
							 L0 841.89 L0 841.79 L0.12 841.79 L0.25 841.68 L0.37 841.68 L0.5 841.58 L0.62 841.58 L0.74 841.48 L0.87
							 841.48 L0.99 841.37 L1.12 841.37 L1.24 841.27 L1.37 841.27 L1.61 841.06 L1.74 841.06 L1.86 840.96 L1.99
							 840.96 L2.11 840.86 L2.23 840.86 L2.36 840.76 L2.48 840.76 L2.61 840.65 L2.73 840.65 L2.73 840.55 L2.85
							 840.55 L2.98 840.45 L2.98 840.34 L3.1 840.34 L3.1 839.93 L2.98 839.93 L2.98 839.83 L2.73 839.83 L2.73
							 839.93 L2.61 839.93 Z" class="st15"/>
			</g>
			<g id="shape83-164" v:mID="83" v:groupContext="shape" transform="translate(477.129,-26.886)">
				<title>工作表.63</title>
				<path d="M0.62 839.93 L0.74 839.93 L0.74 840.03 L0.87 840.14 L0.99 840.14 L0.99 840.24 L1.12 840.34 L1.24 840.34
							 L2.61 841.48 L2.73 841.48 L2.85 841.58 L2.85 841.68 L2.98 841.68 L3.1 841.79 L3.1 841.89 L3.1 841.79
							 L2.98 841.79 L2.85 841.68 L2.73 841.68 L2.61 841.58 L2.48 841.58 L2.36 841.48 L2.23 841.48 L2.11 841.37
							 L1.99 841.37 L1.86 841.27 L1.74 841.27 L1.49 841.06 L1.37 841.06 L1.24 840.96 L1.12 840.96 L0.99 840.86
							 L0.87 840.86 L0.74 840.76 L0.62 840.76 L0.5 840.65 L0.37 840.65 L0.37 840.55 L0.25 840.55 L0.12 840.45
							 L0.12 840.34 L0 840.34 L0 840.03 L0.12 839.93 L0.12 839.83 L0.5 839.83 L0.5 839.93 L0.62 839.93 Z"
						class="st15"/>
			</g>
			<g id="shape84-166" v:mID="84" v:groupContext="shape" transform="translate(492.024,-23.6985)">
				<title>工作表.64</title>
				<desc>H</desc>
				<v:userDefs/>
				<v:textBlock v:margins="rect(0,0,0,0)" v:tabSpace="42.5196"/>
				<v:textRect cx="6.54249" cy="835.512" width="13.09" height="12.7541"/>
				<rect x="0" y="829.139" width="13.09" height="12.75" class="st16"/>
				<text x="2.71" y="838.7" class="st17" v:langID="2052"><v:paragraph v:horizAlign="1"/><v:tabList/>H</text>			</g>
			<g id="shape85-169" v:mID="85" v:groupContext="shape" transform="translate(501.209,-23.6985)">
				<title>工作表.65</title>
				<desc>U</desc>
				<v:userDefs/>
				<v:textBlock v:margins="rect(0,0,0,0)" v:tabSpace="42.5196"/>
				<v:textRect cx="6.54249" cy="835.512" width="13.09" height="12.7541"/>
				<rect x="0" y="829.139" width="13.09" height="12.75" class="st16"/>
				<text x="2.71" y="838.7" class="st17" v:langID="2052"><v:paragraph v:horizAlign="1"/><v:tabList/>U</text>			</g>
			<g id="shape86-172" v:mID="86" v:groupContext="shape" transform="translate(510.394,-23.6985)">
				<title>工作表.66</title>
				<desc>A</desc>
				<v:userDefs/>
				<v:textBlock v:margins="rect(0,0,0,0)" v:tabSpace="42.5196"/>
				<v:textRect cx="6.54249" cy="835.512" width="13.09" height="12.7541"/>
				<rect x="0" y="829.139" width="13.09" height="12.75" class="st16"/>
				<text x="2.71" y="838.7" class="st17" v:langID="2052"><v:paragraph v:horizAlign="1"/><v:tabList/>A</text>			</g>
			<g id="shape87-175" v:mID="87" v:groupContext="shape" transform="translate(519.579,-23.6985)">
				<title>工作表.67</title>
				<desc>W</desc>
				<v:userDefs/>
				<v:textBlock v:margins="rect(0,0,0,0)" v:tabSpace="42.5196"/>
				<v:textRect cx="7.89687" cy="835.512" width="15.8" height="12.7541"/>
				<rect x="0" y="829.139" width="15.79" height="12.75" class="st16"/>
				<text x="2.88" y="838.7" class="st17" v:langID="2052"><v:paragraph v:horizAlign="1"/><v:tabList/>W</text>			</g>
			<g id="shape88-178" v:mID="88" v:groupContext="shape" transform="translate(531.619,-23.6985)">
				<title>工作表.68</title>
				<desc>E</desc>
				<v:userDefs/>
				<v:textBlock v:margins="rect(0,0,0,0)" v:tabSpace="42.5196"/>
				<v:textRect cx="6.20531" cy="835.512" width="12.42" height="12.7541"/>
				<rect x="0" y="829.139" width="12.41" height="12.75" class="st16"/>
				<text x="2.66" y="838.7" class="st17" v:langID="2052"><v:paragraph v:horizAlign="1"/><v:tabList/>E</text>			</g>
			<g id="shape89-181" v:mID="89" v:groupContext="shape" transform="translate(540.183,-23.6985)">
				<title>工作表.69</title>
				<desc>I</desc>
				<v:userDefs/>
				<v:textBlock v:margins="rect(0,0,0,0)" v:tabSpace="42.5196"/>
				<v:textRect cx="3.8277" cy="835.512" width="7.66" height="12.7541"/>
				<rect x="0" y="829.139" width="7.65999" height="12.75" class="st16"/>
				<text x="2.35" y="838.7" class="st17" v:langID="2052"><v:paragraph v:horizAlign="1"/><v:tabList/>I</text>			</g>
			<g id="shape90-184" v:mID="90" v:groupContext="shape" transform="translate(476.307,-13.8044)">
				<title>工作表.70</title>
				<desc>Quidway</desc>
				<v:userDefs/>
				<v:textBlock v:margins="rect(0,0,0,0)" v:tabSpace="42.5196"/>
				<v:textRect cx="23.3969" cy="836.138" width="46.8" height="11.5007"/>
				<rect x="0" y="830.389" width="46.7899" height="11.5" class="st16"/>
				<text x="4.76" y="839.01" class="st18" v:langID="2052"><v:paragraph v:horizAlign="1"/><v:tabList/>Quidway</text>			</g>
			<g id="shape91-187" v:mID="91" v:groupContext="shape" transform="translate(355.005,-10.404)">
				<title>工作表.71</title>
				<path d="M0 828.21 L0 837.23 L1.71 837.23 L1.71 838.94 L4.67 838.94 L4.67 841.89 L11.68 841.89 L11.68 838.94 L14.63
							 838.94 L14.63 837.23 L18.06 837.23 L18.06 834.27 L16.35 834.27 L16.35 830.54 L14.63 830.54 L14.63 828.21
							 L0 828.21 Z" class="st19"/>
			</g>
			<g id="shape92-189" v:mID="92" v:groupContext="shape" transform="translate(519.531,-12.7663)">
				<title>工作表.74</title>
				<desc>S3526E</desc>
				<v:userDefs/>
				<v:textBlock v:margins="rect(0,0,0,0)" v:tabSpace="42.5196"/>
				<v:textRect cx="16.5502" cy="836.581" width="33.11" height="10.6164"/>
				<rect x="0" y="831.269" width="33.1" height="10.62" class="st16"/>
				<text x="0.81" y="839.23" class="st20" v:langID="2052"><v:paragraph v:horizAlign="1"/><v:tabList/>S3526E</text>			</g>
		</g>
		<g id="shape93-192" v:mID="93" v:groupContext="shape" transform="translate(90.0678,-790.539)">
			<title>工作表.75</title>
			<v:custProps>
				<v:cp v:nameU="Row_1" v:lbl="portLightNum" v:type="0" v:langID="2052" v:val="VT4(1)"/>
			</v:custProps>
			<ellipse cx="2.58823" cy="839.295" rx="2.58823" ry="2.59374" class="st21"/>
		</g>
		<g id="shape94-194" v:mID="94" v:groupContext="shape" transform="translate(100.026,-790.539)">
			<title>工作表.76</title>
			<v:custProps>
				<v:cp v:nameU="Row_1" v:lbl="portLightNum" v:type="0" v:langID="2052" v:val="VT4(2)"/>
			</v:custProps>
			<ellipse cx="2.58823" cy="839.295" rx="2.58823" ry="2.59374" class="st21"/>
		</g>
		<g id="shape95-196" v:mID="95" v:groupContext="shape" transform="translate(109.59,-790.539)">
			<title>工作表.77</title>
			<v:custProps>
				<v:cp v:nameU="Row_1" v:lbl="portLightNum" v:type="0" v:langID="2052" v:val="VT4(3)"/>
			</v:custProps>
			<ellipse cx="2.58823" cy="839.295" rx="2.58823" ry="2.59374" class="st21"/>
		</g>
		<g id="shape96-198" v:mID="96" v:groupContext="shape" transform="translate(119.548,-790.539)">
			<title>工作表.78</title>
			<v:custProps>
				<v:cp v:nameU="Row_1" v:lbl="portLightNum" v:type="0" v:langID="2052" v:val="VT4(4)"/>
			</v:custProps>
			<ellipse cx="2.58823" cy="839.295" rx="2.58823" ry="2.59374" class="st21"/>
		</g>
		<g id="shape97-200" v:mID="97" v:groupContext="shape" transform="translate(129.753,-790.539)">
			<title>工作表.79</title>
			<v:custProps>
				<v:cp v:nameU="Row_1" v:lbl="portLightNum" v:type="0" v:langID="2052" v:val="VT4(5)"/>
			</v:custProps>
			<ellipse cx="2.58823" cy="839.295" rx="2.58823" ry="2.59374" class="st21"/>
		</g>
		<g id="shape98-202" v:mID="98" v:groupContext="shape" transform="translate(139.711,-790.539)">
			<title>工作表.80</title>
			<v:custProps>
				<v:cp v:nameU="Row_1" v:lbl="portLightNum" v:type="0" v:langID="2052" v:val="VT4(6)"/>
			</v:custProps>
			<ellipse cx="2.58823" cy="839.295" rx="2.58823" ry="2.59374" class="st21"/>
		</g>
		<g id="shape99-204" v:mID="99" v:groupContext="shape" transform="translate(149.275,-790.539)">
			<title>工作表.81</title>
			<v:custProps>
				<v:cp v:nameU="Row_1" v:lbl="portLightNum" v:type="0" v:langID="2052" v:val="VT4(7)"/>
			</v:custProps>
			<ellipse cx="2.58823" cy="839.295" rx="2.58823" ry="2.59374" class="st21"/>
		</g>
		<g id="shape100-206" v:mID="100" v:groupContext="shape" transform="translate(159.233,-790.539)">
			<title>工作表.82</title>
			<v:custProps>
				<v:cp v:nameU="Row_1" v:lbl="portLightNum" v:type="0" v:langID="2052" v:val="VT4(8)"/>
			</v:custProps>
			<ellipse cx="2.58823" cy="839.295" rx="2.58823" ry="2.59374" class="st21"/>
		</g>
		<g id="shape101-208" v:mID="101" v:groupContext="shape" transform="translate(180.776,-790.539)">
			<title>工作表.83</title>
			<v:custProps>
				<v:cp v:nameU="Row_1" v:lbl="portLightNum" v:type="0" v:langID="2052" v:val="VT4(9)"/>
			</v:custProps>
			<ellipse cx="2.58823" cy="839.295" rx="2.58823" ry="2.59374" class="st21"/>
		</g>
		<g id="shape102-210" v:mID="102" v:groupContext="shape" transform="translate(190.735,-790.539)">
			<title>工作表.84</title>
			<v:custProps>
				<v:cp v:nameU="Row_1" v:lbl="portLightNum" v:type="0" v:langID="2052" v:val="VT4(10)"/>
			</v:custProps>
			<ellipse cx="2.58823" cy="839.295" rx="2.58823" ry="2.59374" class="st21"/>
		</g>
		<g id="shape103-212" v:mID="103" v:groupContext="shape" transform="translate(200.298,-790.539)">
			<title>工作表.85</title>
			<v:custProps>
				<v:cp v:nameU="Row_1" v:lbl="portLightNum" v:type="0" v:langID="2052" v:val="VT4(11)"/>
			</v:custProps>
			<ellipse cx="2.58823" cy="839.295" rx="2.58823" ry="2.59374" class="st21"/>
		</g>
		<g id="shape104-214" v:mID="104" v:groupContext="shape" transform="translate(210.257,-790.539)">
			<title>工作表.86</title>
			<v:custProps>
				<v:cp v:nameU="Row_1" v:lbl="portLightNum" v:type="0" v:langID="2052" v:val="VT4(12)"/>
			</v:custProps>
			<ellipse cx="2.58823" cy="839.295" rx="2.58823" ry="2.59374" class="st21"/>
		</g>
		<g id="shape105-216" v:mID="105" v:groupContext="shape" transform="translate(220.461,-790.539)">
			<title>工作表.87</title>
			<v:custProps>
				<v:cp v:nameU="Row_1" v:lbl="portLightNum" v:type="0" v:langID="2052" v:val="VT4(13)"/>
			</v:custProps>
			<ellipse cx="2.58823" cy="839.295" rx="2.58823" ry="2.59374" class="st21"/>
		</g>
		<g id="shape106-218" v:mID="106" v:groupContext="shape" transform="translate(230.42,-790.539)">
			<title>工作表.88</title>
			<v:custProps>
				<v:cp v:nameU="Row_1" v:lbl="portLightNum" v:type="0" v:langID="2052" v:val="VT4(14)"/>
			</v:custProps>
			<ellipse cx="2.58823" cy="839.295" rx="2.58823" ry="2.59374" class="st21"/>
		</g>
		<g id="shape107-220" v:mID="107" v:groupContext="shape" transform="translate(239.983,-790.539)">
			<title>工作表.89</title>
			<v:custProps>
				<v:cp v:nameU="Row_1" v:lbl="portLightNum" v:type="0" v:langID="2052" v:val="VT4(15)"/>
			</v:custProps>
			<ellipse cx="2.58823" cy="839.295" rx="2.58823" ry="2.59374" class="st21"/>
		</g>
		<g id="shape108-222" v:mID="108" v:groupContext="shape" transform="translate(249.942,-790.539)">
			<title>工作表.90</title>
			<v:custProps>
				<v:cp v:nameU="Row_1" v:lbl="portLightNum" v:type="0" v:langID="2052" v:val="VT4(16)"/>
			</v:custProps>
			<ellipse cx="2.58823" cy="839.295" rx="2.58823" ry="2.59374" class="st21"/>
		</g>
		<g id="shape109-224" v:mID="109" v:groupContext="shape" transform="translate(271.239,-790.539)">
			<title>工作表.91</title>
			<v:custProps>
				<v:cp v:nameU="Row_1" v:lbl="portLightNum" v:type="0" v:langID="2052" v:val="VT4(17)"/>
			</v:custProps>
			<ellipse cx="2.58823" cy="839.295" rx="2.58823" ry="2.59374" class="st21"/>
		</g>
		<g id="shape110-226" v:mID="110" v:groupContext="shape" transform="translate(281.197,-790.539)">
			<title>工作表.92</title>
			<v:custProps>
				<v:cp v:nameU="Row_1" v:lbl="portLightNum" v:type="0" v:langID="2052" v:val="VT4(18)"/>
			</v:custProps>
			<ellipse cx="2.58823" cy="839.295" rx="2.58823" ry="2.59374" class="st21"/>
		</g>
		<g id="shape111-228" v:mID="111" v:groupContext="shape" transform="translate(290.761,-790.539)">
			<title>工作表.93</title>
			<v:custProps>
				<v:cp v:nameU="Row_1" v:lbl="portLightNum" v:type="0" v:langID="2052" v:val="VT4(19)"/>
			</v:custProps>
			<ellipse cx="2.58823" cy="839.295" rx="2.58823" ry="2.59374" class="st21"/>
		</g>
		<g id="shape112-230" v:mID="112" v:groupContext="shape" transform="translate(300.719,-790.539)">
			<title>工作表.94</title>
			<v:custProps>
				<v:cp v:nameU="Row_1" v:lbl="portLightNum" v:type="0" v:langID="2052" v:val="VT4(20)"/>
			</v:custProps>
			<ellipse cx="2.58823" cy="839.295" rx="2.58823" ry="2.59374" class="st21"/>
		</g>
		<g id="shape113-232" v:mID="113" v:groupContext="shape" transform="translate(310.924,-790.539)">
			<title>工作表.95</title>
			<v:custProps>
				<v:cp v:nameU="Row_1" v:lbl="portLightNum" v:type="0" v:langID="2052" v:val="VT4(21)"/>
			</v:custProps>
			<ellipse cx="2.58823" cy="839.295" rx="2.58823" ry="2.59374" class="st21"/>
		</g>
		<g id="shape114-234" v:mID="114" v:groupContext="shape" transform="translate(320.882,-790.539)">
			<title>工作表.96</title>
			<v:custProps>
				<v:cp v:nameU="Row_1" v:lbl="portLightNum" v:type="0" v:langID="2052" v:val="VT4(22)"/>
			</v:custProps>
			<ellipse cx="2.58823" cy="839.295" rx="2.58823" ry="2.59374" class="st21"/>
		</g>
		<g id="shape115-236" v:mID="115" v:groupContext="shape" transform="translate(330.446,-790.539)">
			<title>工作表.97</title>
			<v:custProps>
				<v:cp v:nameU="Row_1" v:lbl="portLightNum" v:type="0" v:langID="2052" v:val="VT4(23)"/>
			</v:custProps>
			<ellipse cx="2.58823" cy="839.295" rx="2.58823" ry="2.59374" class="st21"/>
		</g>
		<g id="shape116-238" v:mID="116" v:groupContext="shape" transform="translate(340.404,-790.539)">
			<title>工作表.98</title>
			<v:custProps>
				<v:cp v:nameU="Row_1" v:lbl="portLightNum" v:type="0" v:langID="2052" v:val="VT4(24)"/>
			</v:custProps>
			<ellipse cx="2.58823" cy="839.295" rx="2.58823" ry="2.59374" class="st21"/>
		</g>
	</g>
</svg>
