<?xml version="1.0" encoding="UTF-8" standalone="no"?>
<!DOCTYPE svg PUBLIC "-//W3C//DTD SVG 1.1//EN" "http://www.w3.org/Graphics/SVG/1.1/DTD/svg11.dtd">
<!-- 由 Microsoft Visio, SVG Export 生成 1.3.6.1.4.1.9.1.10.svg 页-1 -->
<svg xmlns="http://www.w3.org/2000/svg" xmlns:xlink="http://www.w3.org/1999/xlink" xmlns:ev="http://www.w3.org/2001/xml-events"
		xmlns:v="http://schemas.microsoft.com/visio/2003/SVGExtensions/" width="8.2732in" height="1.37168in"
		viewBox="0 0 595.67 98.7612" xml:space="preserve" color-interpolation-filters="sRGB" class="st32_ae7bb8bf8bb98">
	<v:documentProperties  v:metric="true" v:viewMarkup="false">
		<v:userDefs>
			<v:ud />
		</v:userDefs>
	</v:documentProperties>

	<style type="text/css">
	<![CDATA[
		.st1_ae7bb8bf8bb98 {fill:#2a5a96;stroke:#000000;stroke-linecap:round;stroke-linejoin:round;stroke-width:0.394766}
		.st2_ae7bb8bf8bb98 {fill:#efe3e3;stroke:#000000;stroke-linecap:round;stroke-linejoin:round;stroke-width:0.160551}
		.st3_ae7bb8bf8bb98 {fill:#eaeaea;stroke:#000000;stroke-linecap:round;stroke-linejoin:round;stroke-width:0.070131}
		.st4_ae7bb8bf8bb98 {fill:none;visibility:hidden}
		.st5_ae7bb8bf8bb98 {stroke:#0a0a0a;stroke-linecap:round;stroke-linejoin:round;stroke-width:0.070131}
		.st6_ae7bb8bf8bb98 {fill:#161616;stroke:#000000;stroke-linecap:round;stroke-linejoin:round;stroke-width:0.070131}
		.st7_ae7bb8bf8bb98 {fill:#666666;stroke:#0a0a0a;stroke-linecap:round;stroke-linejoin:round;stroke-width:0.070131}
		.st8_ae7bb8bf8bb98 {fill:#0a0a0a;stroke:#000000;stroke-linecap:round;stroke-linejoin:round;stroke-width:0.070131}
		.st9_ae7bb8bf8bb98 {stroke:#000000;stroke-linecap:round;stroke-linejoin:round;stroke-width:0.070131}
		.st10_ae7bb8bf8bb98 {fill:#161616;stroke:#000000;stroke-linecap:round;stroke-linejoin:round;stroke-width:0.210393}
		.st11_ae7bb8bf8bb98 {stroke:none;stroke-linecap:round;stroke-linejoin:round;stroke-width:0.75}
		.st12_ae7bb8bf8bb98 {fill:#ffffff;font-family:Arial;font-size:0.290382em;font-weight:bold}
		.st13_ae7bb8bf8bb98 {fill:#333333;stroke:#000000;stroke-linecap:round;stroke-linejoin:round;stroke-width:0.332447}
		.st14_ae7bb8bf8bb98 {stroke:#0a0a0a;stroke-linecap:round;stroke-linejoin:round;stroke-width:0.332447}
		.st15_ae7bb8bf8bb98 {fill:#666666;stroke:#000000;stroke-linecap:round;stroke-linejoin:round;stroke-width:0.101061}
		.st16_ae7bb8bf8bb98 {stroke:#000000;stroke-linecap:round;stroke-linejoin:round;stroke-width:0.101061}
		.st17_ae7bb8bf8bb98 {fill:#bfbfbf;stroke:#000000;stroke-linecap:round;stroke-linejoin:round;stroke-width:0.101061}
		.st18_ae7bb8bf8bb98 {stroke:#bfbfbf;stroke-linecap:round;stroke-linejoin:round;stroke-width:0.101061}
		.st19_ae7bb8bf8bb98 {fill:#494949;stroke:#161616;stroke-linecap:round;stroke-linejoin:round;stroke-width:0.101061}
		.st20_ae7bb8bf8bb98 {fill:#ffffff;stroke:#000000;stroke-linecap:round;stroke-linejoin:round;stroke-width:0.0789295}
		.st21_ae7bb8bf8bb98 {fill:#bfbfbf;stroke:#7f7f7f;stroke-linecap:round;stroke-linejoin:round;stroke-width:0.0894719}
		.st22_ae7bb8bf8bb98 {fill:#494949;stroke:#494949;stroke-linecap:round;stroke-linejoin:round;stroke-width:0.0894719}
		.st23_ae7bb8bf8bb98 {fill:#ffffff;stroke:#000000;stroke-linecap:round;stroke-linejoin:round;stroke-width:0.0894719}
		.st24_ae7bb8bf8bb98 {stroke:#ffffff;stroke-linecap:round;stroke-linejoin:round;stroke-width:0.0894719}
		.st25_ae7bb8bf8bb98 {fill:#efefef;stroke:#0a0a0a;stroke-linecap:round;stroke-linejoin:round;stroke-width:0.112195}
		.st26_ae7bb8bf8bb98 {fill:#000000;stroke:#0a0a0a;stroke-linecap:round;stroke-linejoin:round;stroke-width:0.112195}
		.st27_ae7bb8bf8bb98 {fill:#ffffff;stroke:#0a0a0a;stroke-linecap:round;stroke-linejoin:round;stroke-width:0.0563563}
		.st28_ae7bb8bf8bb98 {fill:#000000;stroke:#161616;stroke-linecap:round;stroke-linejoin:round;stroke-width:0.0782288}
		.st29_ae7bb8bf8bb98 {fill:#000000;stroke:#000000;stroke-linecap:round;stroke-linejoin:round;stroke-width:0.0771505}
		.st30_ae7bb8bf8bb98 {stroke:#000000;stroke-linecap:round;stroke-linejoin:round;stroke-width:0.0771505}
		.st31_ae7bb8bf8bb98 {fill:#7f7f7f;stroke:#000000;stroke-linecap:round;stroke-linejoin:round;stroke-width:0.0771505}
		.st32_ae7bb8bf8bb98 {fill:none;fill-rule:evenodd;font-size:12px;overflow:visible;stroke-linecap:square;stroke-miterlimit:3}
	]]>
	</style>

	<g  v:index="1" v:groupContext="foregroundPage">
		<title>页-1</title>
		<v:pageProperties v:drawingScale="0.0393701" v:pageScale="0.0393701" v:drawingUnits="24" v:shadowOffsetX="8.50394"
				v:shadowOffsetY="-8.50394"/>
		<g id="group1-1" transform="translate(0.197383,-0.197383)"  v:groupContext="group">
			<v:custProps>
				<v:cp  v:lbl="端口数" v:type="0"  v:val="VT4(4)"/>
				<v:cp  v:lbl="模块数" v:type="0"  v:val="VT4(0)"/>
				<v:cp  v:lbl="SysOid" v:type="0"  v:val="VT4(1.3.6.1.4.1.9.1.10.)"/>
			</v:custProps>
			<title>工作表.1</title>
			<g   >
				<title>工作表.3</title>
				<path d="M595.28 0.39 L0 0.39 L0 98.76 L595.28 98.76 L595.28 0.39 L595.28 0.39 Z" class="st1_ae7bb8bf8bb98"/>
			</g>
			<g    transform="translate(57.6342,-23.6632)">
				<title>工作表.4</title>
				<path d="M31.93 66.89 L0 66.89 L0 98.76 L31.93 98.76 L31.93 66.89 L31.93 66.89 Z" class="st2_ae7bb8bf8bb98"/>
			</g>
			<g    transform="translate(61.6438,-27.794)">
				<title>工作表.5</title>
				<ellipse cx="11.8767" cy="86.9039" rx="11.8767" ry="11.8572" class="st3_ae7bb8bf8bb98"/>
			</g>
			<g    transform="translate(61.6438,-27.794)">
				<title>工作表.6</title>
				<ellipse cx="11.8767" cy="86.9039" rx="11.8767" ry="11.8572" class="st4_ae7bb8bf8bb98"/>
				<ellipse cx="11.8767" cy="86.9039" rx="11.8767" ry="11.8572" class="st5_ae7bb8bf8bb98"/>
			</g>
			<g    transform="translate(62.5155,-28.6642)">
				<title>工作表.7</title>
				<ellipse cx="11.0595" cy="87.7742" rx="11.0595" ry="10.987" class="st6_ae7bb8bf8bb98"/>
			</g>
			<g    transform="translate(62.5155,-28.6642)">
				<title>工作表.8</title>
				<ellipse cx="11.0595" cy="87.7742" rx="11.0595" ry="10.987" class="st4_ae7bb8bf8bb98"/>
				<ellipse cx="11.0595" cy="87.7742" rx="11.0595" ry="10.987" class="st5_ae7bb8bf8bb98"/>
			</g>
			<g    transform="translate(63.2782,-28.4467)">
				<title>工作表.9</title>
				<path d="M12.64 80.81 L8.72 80.81 L8.72 77.55 L7.85 77.77 L7.41 77.98 L6.97 78.09 L6.1 78.53 L5.77 78.75 L4.9 79.18
							 L4.58 79.4 L4.25 79.72 L3.81 80.05 L3.49 80.27 L2.83 80.92 L2.62 81.36 L1.96 82.01 L1.74 82.44 L1.53
							 82.77 L0.87 84.08 L0.65 84.4 L0.44 85.27 L0.33 85.82 L0 87.12 L0 89.41 L0.11 89.62 L0.11 90.38 L0.22
							 90.49 L0.22 90.82 L0.33 90.93 L0.33 91.26 L0.44 91.36 L0.44 91.47 L0.54 91.69 L0.54 91.8 L0.65 91.91
							 L0.65 92.13 L0.76 92.23 L0.76 92.34 L0.87 92.56 L0.98 92.67 L0.98 92.89 L1.09 93 L4.79 93 L4.79 97.13
							 L4.9 97.24 L5.12 97.35 L5.23 97.35 L5.45 97.46 L5.56 97.56 L5.77 97.67 L5.88 97.67 L6.32 97.89 L6.43
							 97.89 L6.86 98.11 L6.97 98.11 L7.19 98.22 L7.41 98.22 L7.63 98.33 L7.74 98.33 L7.95 98.43 L8.17 98.43
							 L8.39 98.54 L8.72 98.54 L8.93 98.65 L9.48 98.65 L9.7 98.76 L11.66 98.76 L11.88 98.65 L12.42 98.65 L12.64
							 98.54 L12.97 98.54 L13.18 98.43 L13.4 98.43 L13.51 98.33 L13.73 98.33 L13.84 98.22 L14.06 98.11 L14.27
							 98.11 L14.38 98 L14.6 98 L14.71 97.89 L14.93 97.78 L15.04 97.67 L15.25 97.56 L15.36 97.56 L15.58 97.46
							 L15.69 97.35 L15.91 97.24 L16.02 97.13 L16.24 97.02 L16.34 96.91 L16.34 93 L20.16 93 L20.27 92.89 L20.27
							 92.78 L20.38 92.56 L20.38 92.45 L20.48 92.34 L20.48 92.23 L20.59 92.02 L20.59 91.91 L20.7 91.8 L20.7
							 91.58 L20.81 91.47 L20.81 91.26 L20.92 91.15 L20.92 90.82 L21.03 90.71 L21.03 90.38 L21.14 90.17 L21.14
							 89.84 L21.25 89.73 L21.25 89.08 L21.36 88.86 L21.36 87.12 L21.25 86.58 L21.14 86.14 L21.14 85.71 L21.03
							 85.16 L20.81 84.73 L20.59 83.86 L20.16 82.99 L19.94 82.66 L19.5 81.79 L19.18 81.46 L18.96 81.14 L18.63
							 80.7 L17.98 80.05 L17.65 79.83 L17.32 79.51 L16.89 79.18 L16.56 78.96 L16.13 78.75 L15.8 78.53 L14.49
							 77.88 L13.62 77.66 L13.08 77.55 L12.64 77.44 L12.64 80.7 L12.64 80.81 L12.64 80.81 Z" class="st7_ae7bb8bf8bb98"/>
			</g>
			<g    transform="translate(66.4381,-43.5674)">
				
				<ellipse cx="0.980642" cy="97.7821" rx="0.980642" ry="0.979039" class="st8_ae7bb8bf8bb98"/>
			</g>
			<g    transform="translate(66.4381,-43.5674)">
				
				<ellipse cx="0.980642" cy="97.7821" rx="0.980642" ry="0.979039" class="st4_ae7bb8bf8bb98"/>
				<ellipse cx="0.980642" cy="97.7821" rx="0.980642" ry="0.979039" class="st9_ae7bb8bf8bb98"/>
			</g>
			<g    transform="translate(78.8595,-44.2201)">
				
				<ellipse cx="0.980642" cy="97.7821" rx="0.980642" ry="0.979039" class="st8_ae7bb8bf8bb98"/>
			</g>
			<g    transform="translate(78.8595,-44.2201)">
				
				<ellipse cx="0.980642" cy="97.7821" rx="0.980642" ry="0.979039" class="st4_ae7bb8bf8bb98"/>
				<ellipse cx="0.980642" cy="97.7821" rx="0.980642" ry="0.979039" class="st9_ae7bb8bf8bb98"/>
			</g>
			<g    transform="translate(79.5133,-37.6931)">
				
				<ellipse cx="0.980642" cy="97.7821" rx="0.980642" ry="0.979039" class="st8_ae7bb8bf8bb98"/>
			</g>
			<g    transform="translate(79.5133,-37.6931)">
				
				<ellipse cx="0.980642" cy="97.7821" rx="0.980642" ry="0.979039" class="st4_ae7bb8bf8bb98"/>
				<ellipse cx="0.980642" cy="97.7821" rx="0.980642" ry="0.979039" class="st9_ae7bb8bf8bb98"/>
			</g>
			<g    transform="translate(65.5664,-37.6931)">
				
				<ellipse cx="1.03512" cy="97.7821" rx="1.03512" ry="0.979039" class="st8_ae7bb8bf8bb98"/>
			</g>
			<g    transform="translate(65.5664,-37.6931)">
				
				<ellipse cx="1.03512" cy="97.7821" rx="1.03512" ry="0.979039" class="st4_ae7bb8bf8bb98"/>
				<ellipse cx="1.03512" cy="97.7821" rx="1.03512" ry="0.979039" class="st9_ae7bb8bf8bb98"/>
			</g>
			<g    transform="translate(71.995,-28.4467)">
				
				<path d="M3.92 93.76 L0 93.76 L0 98.76 L3.92 98.76 L3.92 93.76 L3.92 93.76 Z" class="st10_ae7bb8bf8bb98"/>
			</g>
			<g    transform="translate(67.5613,-11.6716)">
				
				<desc>PWR</desc>
				<v:textBlock v:margins="rect(0,0,0,0)" v:tabSpace="42.5197"/>
				<v:textRect cx="8.81417" cy="95.5203" width="17.63" height="6.48168"/>
				<path d="M17.63 92.28 L0 92.28 L0 98.76 L17.63 98.76 L17.63 92.28" class="st11_ae7bb8bf8bb98"/>
				<text x="4.75" y="96.57" class="st12_ae7bb8bf8bb98" ><v:paragraph v:horizAlign="1"/><v:tabList/>PWR</text>			</g>
			<g    transform="translate(547.26,-35.1249)">
				
				<ellipse cx="14.4488" cy="84.309" rx="14.4488" ry="14.4522" class="st13_ae7bb8bf8bb98"/>
			</g>
			<g    transform="translate(547.26,-35.1249)">
				
				<ellipse cx="14.4488" cy="84.309" rx="14.4488" ry="14.4522" class="st4_ae7bb8bf8bb98"/>
				<ellipse cx="14.4488" cy="84.309" rx="14.4488" ry="14.4522" class="st14_ae7bb8bf8bb98"/>
			</g>
			<g    transform="translate(17.2994,-35.1249)">
				
				<ellipse cx="14.4488" cy="84.309" rx="14.4488" ry="14.4522" class="st13_ae7bb8bf8bb98"/>
			</g>
			<g    transform="translate(17.2994,-35.1249)">
				
				<ellipse cx="14.4488" cy="84.309" rx="14.4488" ry="14.4522" class="st4_ae7bb8bf8bb98"/>
				<ellipse cx="14.4488" cy="84.309" rx="14.4488" ry="14.4522" class="st14_ae7bb8bf8bb98"/>
			</g>
			<g    transform="translate(6.66107,-8.76208)">
				
				<ellipse cx="4.94453" cy="93.8218" rx="4.94453" ry="4.93934" class="st15_ae7bb8bf8bb98"/>
			</g>
			<g    transform="translate(6.66107,-8.76208)">
				
				<ellipse cx="4.94453" cy="93.8218" rx="4.94453" ry="4.93934" class="st4_ae7bb8bf8bb98"/>
				<ellipse cx="4.94453" cy="93.8218" rx="4.94453" ry="4.93934" class="st16_ae7bb8bf8bb98"/>
			</g>
			<g    transform="translate(7.13198,-9.2325)">
				
				<ellipse cx="4.55211" cy="94.2922" rx="4.55211" ry="4.46893" class="st17_ae7bb8bf8bb98"/>
			</g>
			<g    transform="translate(7.13198,-9.2325)">
				
				<ellipse cx="4.55211" cy="94.2922" rx="4.55211" ry="4.46893" class="st4_ae7bb8bf8bb98"/>
				<ellipse cx="4.55211" cy="94.2922" rx="4.55211" ry="4.46893" class="st18_ae7bb8bf8bb98"/>
			</g>
			<g    transform="translate(7.75986,-8.60528)">
				
				<path d="M0.47 93.43 L0.31 93.43 L0.16 93.59 L0.16 93.74 L0 93.74 L0 94.68 L0.16 94.68 L0.16 94.84 L0.31 95 L3.61
							 95 L3.61 98.45 L3.77 98.45 L3.77 98.6 L3.92 98.6 L3.92 98.76 L4.87 98.76 L4.87 98.6 L5.02 98.6 L5.02
							 98.45 L5.18 98.45 L5.18 95 L8.63 95 L8.63 94.84 L8.79 94.84 L8.79 94.68 L8.95 94.68 L8.95 93.74 L8.79
							 93.74 L8.79 93.59 L8.63 93.59 L8.63 93.43 L5.18 93.43 L5.18 90.14 L5.02 89.98 L4.87 89.98 L4.87 89.82
							 L3.92 89.82 L3.92 89.98 L3.77 89.98 L3.61 90.14 L3.61 93.43 L0.63 93.43 L0.47 93.43 L0.47 93.43 Z"
						class="st19_ae7bb8bf8bb98"/>
			</g>
			<g    transform="translate(7.60289,-8.44848)">
				
				<path d="M0 93.74 L0 94.53 L0.16 94.68 L0.31 94.68 L0.31 94.84 L3.77 94.84 L3.77 98.45 L3.92 98.6 L4.08 98.6 L4.08
							 98.76 L4.55 98.76 L4.71 98.76" class="st18_ae7bb8bf8bb98"/>
			</g>
			<g    transform="translate(11.3702,-13.9366)">
				
				<path d="M0 95.47 L0 98.6 L0 98.76" class="st18_ae7bb8bf8bb98"/>
			</g>
			<g    transform="translate(577.558,-8.76208)">
				
				<ellipse cx="4.94453" cy="93.8218" rx="4.94453" ry="4.93934" class="st15_ae7bb8bf8bb98"/>
			</g>
			<g    transform="translate(577.558,-8.76208)">
				
				<ellipse cx="4.94453" cy="93.8218" rx="4.94453" ry="4.93934" class="st4_ae7bb8bf8bb98"/>
				<ellipse cx="4.94453" cy="93.8218" rx="4.94453" ry="4.93934" class="st16_ae7bb8bf8bb98"/>
			</g>
			<g    transform="translate(578.029,-9.2325)">
				
				<ellipse cx="4.47362" cy="94.2922" rx="4.47362" ry="4.46893" class="st17_ae7bb8bf8bb98"/>
			</g>
			<g    transform="translate(578.029,-9.2325)">
				
				<ellipse cx="4.47362" cy="94.2922" rx="4.47362" ry="4.46893" class="st4_ae7bb8bf8bb98"/>
				<ellipse cx="4.47362" cy="94.2922" rx="4.47362" ry="4.46893" class="st18_ae7bb8bf8bb98"/>
			</g>
			<g    transform="translate(578.657,-8.60528)">
				
				<path d="M0.47 93.43 L0.31 93.43 L0.16 93.59 L0.16 93.74 L0 93.74 L0 94.68 L0.16 94.68 L0.16 94.84 L0.31 95 L3.61
							 95 L3.61 98.45 L3.77 98.45 L3.77 98.6 L3.92 98.6 L3.92 98.76 L4.87 98.76 L4.87 98.6 L5.02 98.6 L5.02
							 98.45 L5.18 98.45 L5.18 95 L8.63 95 L8.63 94.84 L8.79 94.84 L8.79 94.68 L8.95 94.68 L8.95 93.74 L8.79
							 93.74 L8.79 93.59 L8.63 93.59 L8.63 93.43 L5.18 93.43 L5.18 90.14 L5.02 89.98 L4.87 89.98 L4.87 89.82
							 L3.92 89.82 L3.92 89.98 L3.77 89.98 L3.61 90.14 L3.61 93.43 L0.63 93.43 L0.47 93.43 L0.47 93.43 Z"
						class="st19_ae7bb8bf8bb98"/>
			</g>
			<g    transform="translate(578.5,-8.44848)">
				
				<path d="M0 93.74 L0 94.53 L0.16 94.68 L0.31 94.68 L0.31 94.84 L3.77 94.84 L3.77 98.45 L3.92 98.6 L4.08 98.6 L4.08
							 98.76 L4.55 98.76 L4.71 98.76" class="st18_ae7bb8bf8bb98"/>
			</g>
			<g    transform="translate(582.267,-13.9366)">
				
				<path d="M0 95.47 L0 98.6 L0 98.76" class="st18_ae7bb8bf8bb98"/>
			</g>
			<g    transform="translate(146.646,-27.7199)">
				
				<path d="M10.53 92.51 L4.41 92.51 L4.16 92.38 L3.92 92.38 L3.43 92.14 L3.18 92.14 L2.45 91.77 L2.33 91.65 L2.08 91.52
							 L1.71 91.16 L1.47 91.03 L1.35 90.79 L0.98 90.42 L0.86 90.18 L0.73 90.05 L0.37 89.32 L0.37 89.07 L0.12
							 88.58 L0.12 88.34 L0 88.09 L0 86.62 L0.12 86.37 L0.12 86.13 L0.37 85.64 L0.37 85.39 L0.73 84.66 L0.86
							 84.53 L0.98 84.29 L1.35 83.92 L1.47 83.68 L1.71 83.55 L2.08 83.18 L2.33 83.06 L2.45 82.94 L3.18 82.57
							 L3.43 82.57 L3.92 82.33 L4.16 82.33 L4.41 82.2 L10.53 82.2 L10.65 81.96 L10.77 81.59 L10.89 81.35 L11.14
							 80.98 L11.26 80.73 L11.38 80.36 L11.51 80.12 L11.75 79.87 L11.87 79.51 L12.36 79.01 L12.49 78.77 L13.71
							 77.54 L13.95 77.42 L14.44 76.93 L14.81 76.81 L15.06 76.68 L15.42 76.56 L15.67 76.32 L16.04 76.32 L16.77
							 76.07 L17.14 76.07 L17.5 75.95 L51.04 75.95 L51.41 76.07 L51.78 76.07 L52.51 76.32 L52.88 76.32 L53.13
							 76.56 L53.49 76.68 L53.74 76.81 L54.11 76.93 L54.59 77.42 L54.84 77.54 L56.06 78.77 L56.19 79.01 L56.68
							 79.51 L56.8 79.87 L57.04 80.12 L57.17 80.36 L57.29 80.73 L57.41 80.98 L57.65 81.35 L57.78 81.59 L57.9
							 81.96 L58.02 82.2 L64.14 82.2 L64.39 82.33 L64.63 82.33 L65.12 82.57 L65.37 82.57 L66.1 82.94 L66.22
							 83.06 L66.47 83.18 L66.84 83.55 L67.08 83.68 L67.2 83.92 L67.57 84.29 L67.69 84.53 L67.81 84.66 L68.18
							 85.39 L68.18 85.64 L68.43 86.13 L68.43 86.37 L68.55 86.62 L68.55 88.09 L68.43 88.34 L68.43 88.58 L68.18
							 89.07 L68.18 89.32 L67.81 90.05 L67.69 90.18 L67.57 90.42 L67.2 90.79 L67.08 91.03 L66.84 91.16 L66.47
							 91.52 L66.22 91.65 L66.1 91.77 L65.37 92.14 L65.12 92.14 L64.63 92.38 L64.39 92.38 L64.14 92.51 L55.57
							 92.51 L55.45 92.75 L55.33 93.12 L55.21 93.36 L54.96 93.73 L54.84 93.98 L54.72 94.35 L54.59 94.59 L54.35
							 94.84 L54.23 95.2 L53.74 95.69 L53.62 95.94 L52.39 97.17 L52.15 97.29 L51.66 97.78 L51.29 97.9 L51.04
							 98.03 L50.68 98.15 L50.43 98.39 L50.07 98.39 L49.33 98.64 L48.96 98.64 L48.6 98.76 L19.95 98.76 L19.59
							 98.64 L19.22 98.64 L18.48 98.39 L18.12 98.39 L17.87 98.15 L17.5 98.03 L17.26 97.9 L16.89 97.78 L16.4
							 97.29 L16.16 97.17 L14.93 95.94 L14.81 95.69 L14.32 95.2 L14.2 94.84 L13.95 94.59 L13.83 94.35 L13.71
							 93.98 L13.59 93.73 L13.34 93.36 L13.22 93.12 L13.1 92.75 L12.98 92.51 L10.65 92.51 L10.53 92.51 L10.53
							 92.51 Z" class="st20_ae7bb8bf8bb98"/>
			</g>
			<g    transform="translate(159.877,-29.213)">
				
				<path d="M2.08 94.32 L2.08 95.01 L2.22 95.29 L2.22 95.71 L2.36 95.85 L2.36 96.12 L2.64 96.4 L2.78 96.68 L2.78 96.82
							 L3.06 97.1 L3.2 97.37 L3.47 97.65 L3.75 97.79 L4.03 98.07 L4.17 98.07 L4.45 98.21 L4.73 98.48 L5 98.48
							 L5.14 98.62 L5.56 98.62 L5.84 98.76 L36.14 98.76 L36.42 98.62 L36.83 98.62 L36.97 98.48 L37.25 98.48
							 L37.53 98.21 L37.81 98.07 L37.95 98.07 L38.22 97.79 L38.5 97.65 L38.78 97.37 L38.92 97.1 L39.2 96.82
							 L39.2 96.68 L39.34 96.4 L39.61 96.12 L39.61 95.85 L39.75 95.71 L39.75 95.29 L39.89 95.01 L39.89 94.04
							 L40.03 93.9 L40.03 93.35 L40.17 92.93 L40.17 92.65 L40.31 92.24 L40.31 91.82 L40.45 91.27 L40.59 90.85
							 L40.59 90.29 L40.73 89.88 L40.86 89.32 L41 88.91 L41 88.35 L41.14 87.8 L41.28 87.38 L41.28 86.82 L41.42
							 86.41 L41.56 85.85 L41.56 85.44 L41.7 85.02 L41.7 84.74 L41.84 84.33 L41.84 83.77 L41.98 83.63 L41.98
							 82.66 L41.84 82.38 L41.84 81.97 L41.7 81.83 L41.7 81.55 L41.42 81.27 L41.28 81 L41.28 80.86 L41 80.58
							 L40.86 80.3 L40.59 80.02 L40.31 79.88 L40.03 79.61 L39.89 79.61 L39.61 79.47 L39.34 79.19 L39.06 79.19
							 L38.92 79.05 L38.5 79.05 L38.22 78.91 L3.75 78.91 L3.47 79.05 L3.06 79.05 L2.92 79.19 L2.64 79.19 L2.36
							 79.47 L2.08 79.61 L1.95 79.61 L1.67 79.88 L1.39 80.02 L1.11 80.3 L0.97 80.58 L0.69 80.86 L0.69 81 L0.56
							 81.27 L0.28 81.55 L0.28 81.83 L0.14 81.97 L0.14 82.38 L0 82.66 L0 83.63 L0.14 83.77 L0.14 84.33 L0.28
							 84.74 L0.28 85.02 L0.42 85.44 L0.42 85.85 L0.56 86.41 L0.69 86.82 L0.69 87.38 L0.83 87.8 L1.11 88.91
							 L1.11 89.32 L1.25 89.88 L1.39 90.29 L1.39 90.85 L1.53 91.27 L1.67 91.82 L1.67 92.24 L1.81 92.65 L1.81
							 92.93 L1.95 93.35 L1.95 93.9 L2.08 94.04 L2.08 94.18 L2.08 94.32 L2.08 94.32 Z" class="st21_ae7bb8bf8bb98"/>
			</g>
			<g    transform="translate(160.989,-30.0458)">
				
				<path d="M4.03 80.58 L3.47 80.58 L3.2 80.72 L2.78 80.72 L2.64 80.86 L2.5 80.86 L2.22 81 L2.08 81.13 L1.95 81.13 L0.56
							 82.52 L0.56 82.66 L0.42 82.8 L0.28 83.08 L0.28 83.22 L0.14 83.35 L0.14 83.77 L0 84.05 L0 84.88 L0.14
							 85.02 L0.14 85.58 L0.28 85.85 L0.28 86.13 L0.42 86.55 L0.42 86.96 L0.56 87.38 L0.56 87.8 L0.69 88.21
							 L0.83 88.77 L0.83 89.18 L0.97 89.74 L1.11 90.16 L1.11 90.57 L1.25 91.13 L1.39 91.54 L1.39 91.96 L1.53
							 92.38 L1.53 92.79 L1.67 93.21 L1.67 93.49 L1.81 93.76 L1.81 94.32 L1.95 94.46 L1.95 95.29 L2.08 95.57
							 L2.08 95.99 L2.22 96.12 L2.22 96.26 L2.36 96.54 L2.5 96.68 L2.5 96.82 L3.06 97.37 L3.2 97.65 L3.34 97.65
							 L3.89 98.21 L4.03 98.21 L4.17 98.34 L4.45 98.48 L4.59 98.48 L4.73 98.62 L5.14 98.62 L5.42 98.76 L34.33
							 98.76 L34.61 98.62 L35.03 98.62 L35.17 98.48 L35.3 98.48 L35.58 98.34 L35.72 98.21 L35.86 98.21 L36.42
							 97.65 L36.69 97.65 L36.69 97.37 L37.25 96.82 L37.25 96.68 L37.39 96.54 L37.53 96.26 L37.53 96.12 L37.67
							 95.99 L37.67 95.57 L37.81 95.29 L37.81 94.46 L37.95 94.32 L37.95 93.76 L38.08 93.49 L38.08 93.21 L38.22
							 92.79 L38.22 92.38 L38.36 91.96 L38.36 91.54 L38.5 91.13 L38.64 90.57 L38.64 90.16 L38.78 89.74 L38.92
							 89.18 L38.92 88.77 L39.06 88.21 L39.2 87.8 L39.2 87.38 L39.34 86.96 L39.34 86.55 L39.47 86.13 L39.47
							 85.85 L39.61 85.58 L39.61 85.02 L39.75 84.88 L39.75 84.05 L39.61 83.77 L39.61 83.35 L39.47 83.22 L39.47
							 83.08 L39.34 82.8 L39.2 82.66 L39.2 82.52 L38.64 81.97 L38.64 81.83 L38.36 81.69 L37.81 81.13 L37.67
							 81.13 L37.53 81 L37.25 80.86 L37.11 80.86 L36.97 80.72 L36.56 80.72 L36.28 80.58 L4.17 80.58 L4.03 80.58
							 L4.03 80.58 Z" class="st22_ae7bb8bf8bb98"/>
			</g>
			<g    transform="translate(163.213,-42.121)">
				
				<ellipse cx="1.45945" cy="97.3732" rx="1.45945" ry="1.38796" class="st23_ae7bb8bf8bb98"/>
			</g>
			<g    transform="translate(163.213,-42.121)">
				
				<ellipse cx="1.45945" cy="97.3732" rx="1.45945" ry="1.38796" class="st4_ae7bb8bf8bb98"/>
				<ellipse cx="1.45945" cy="97.3732" rx="1.45945" ry="1.38796" class="st24_ae7bb8bf8bb98"/>
			</g>
			<g    transform="translate(171.136,-42.121)">
				
				<ellipse cx="1.38995" cy="97.3732" rx="1.38995" ry="1.38796" class="st23_ae7bb8bf8bb98"/>
			</g>
			<g    transform="translate(171.136,-42.121)">
				
				<ellipse cx="1.38995" cy="97.3732" rx="1.38995" ry="1.38796" class="st4_ae7bb8bf8bb98"/>
				<ellipse cx="1.38995" cy="97.3732" rx="1.38995" ry="1.38796" class="st24_ae7bb8bf8bb98"/>
			</g>
			<g    transform="translate(179.059,-42.121)">
				
				<ellipse cx="1.38995" cy="97.3732" rx="1.38995" ry="1.38796" class="st23_ae7bb8bf8bb98"/>
			</g>
			<g    transform="translate(179.059,-42.121)">
				
				<ellipse cx="1.38995" cy="97.3732" rx="1.38995" ry="1.38796" class="st4_ae7bb8bf8bb98"/>
				<ellipse cx="1.38995" cy="97.3732" rx="1.38995" ry="1.38796" class="st24_ae7bb8bf8bb98"/>
			</g>
			<g    transform="translate(186.842,-42.121)">
				
				<ellipse cx="1.38995" cy="97.3732" rx="1.38995" ry="1.38796" class="st23_ae7bb8bf8bb98"/>
			</g>
			<g    transform="translate(186.842,-42.121)">
				
				<ellipse cx="1.38995" cy="97.3732" rx="1.38995" ry="1.38796" class="st4_ae7bb8bf8bb98"/>
				<ellipse cx="1.38995" cy="97.3732" rx="1.38995" ry="1.38796" class="st24_ae7bb8bf8bb98"/>
			</g>
			<g    transform="translate(194.765,-42.121)">
				
				<ellipse cx="1.38995" cy="97.3732" rx="1.38995" ry="1.38796" class="st23_ae7bb8bf8bb98"/>
			</g>
			<g    transform="translate(194.765,-42.121)">
				
				<ellipse cx="1.38995" cy="97.3732" rx="1.38995" ry="1.38796" class="st4_ae7bb8bf8bb98"/>
				<ellipse cx="1.38995" cy="97.3732" rx="1.38995" ry="1.38796" class="st24_ae7bb8bf8bb98"/>
			</g>
			<g    transform="translate(167.105,-33.7933)">
				
				<ellipse cx="1.38995" cy="97.3732" rx="1.38995" ry="1.38796" class="st23_ae7bb8bf8bb98"/>
			</g>
			<g    transform="translate(167.105,-33.7933)">
				
				<ellipse cx="1.38995" cy="97.3732" rx="1.38995" ry="1.38796" class="st4_ae7bb8bf8bb98"/>
				<ellipse cx="1.38995" cy="97.3732" rx="1.38995" ry="1.38796" class="st24_ae7bb8bf8bb98"/>
			</g>
			<g    transform="translate(175.028,-33.7933)">
				
				<ellipse cx="1.38995" cy="97.3732" rx="1.38995" ry="1.38796" class="st23_ae7bb8bf8bb98"/>
			</g>
			<g    transform="translate(175.028,-33.7933)">
				
				<ellipse cx="1.38995" cy="97.3732" rx="1.38995" ry="1.38796" class="st4_ae7bb8bf8bb98"/>
				<ellipse cx="1.38995" cy="97.3732" rx="1.38995" ry="1.38796" class="st24_ae7bb8bf8bb98"/>
			</g>
			<g    transform="translate(182.95,-33.7933)">
				
				<ellipse cx="1.45945" cy="97.3732" rx="1.45945" ry="1.38796" class="st23_ae7bb8bf8bb98"/>
			</g>
			<g    transform="translate(182.95,-33.7933)">
				
				<ellipse cx="1.45945" cy="97.3732" rx="1.45945" ry="1.38796" class="st4_ae7bb8bf8bb98"/>
				<ellipse cx="1.45945" cy="97.3732" rx="1.45945" ry="1.38796" class="st24_ae7bb8bf8bb98"/>
			</g>
			<g    transform="translate(190.734,-33.7933)">
				
				<ellipse cx="1.45945" cy="97.3732" rx="1.45945" ry="1.38796" class="st23_ae7bb8bf8bb98"/>
			</g>
			<g    transform="translate(190.734,-33.7933)">
				
				<ellipse cx="1.45945" cy="97.3732" rx="1.45945" ry="1.38796" class="st4_ae7bb8bf8bb98"/>
				<ellipse cx="1.45945" cy="97.3732" rx="1.45945" ry="1.38796" class="st24_ae7bb8bf8bb98"/>
			</g>
			<g    transform="translate(147.157,-34.2228)">
				
				<path d="M8.59 88.33 L2.86 88.33 L0 93.55 L2.86 98.76 L8.59 98.76 L11.46 93.55 L8.59 88.33 L8.59 88.33 Z"
						class="st25_ae7bb8bf8bb98"/>
			</g>
			<g    transform="translate(150.526,-36.5609)">
				
				<path d="M4.72 94.44 L2.36 93.01 L0 94.44 L0 97.32 L2.36 98.76 L4.72 97.32 L4.72 94.44 L4.72 94.44 Z" class="st26_ae7bb8bf8bb98"/>
			</g>
			<g    transform="translate(202.749,-34.2228)">
				
				<path d="M8.59 88.33 L2.86 88.33 L0 93.55 L2.86 98.76 L8.59 98.76 L11.46 93.55 L8.59 88.33 L8.59 88.33 Z"
						class="st25_ae7bb8bf8bb98"/>
			</g>
			<g    transform="translate(206.118,-36.5609)">
				
				<path d="M4.72 94.44 L2.36 93.01 L0 94.44 L0 97.32 L2.36 98.76 L4.72 97.32 L4.72 94.44 L4.72 94.44 Z" class="st26_ae7bb8bf8bb98"/>
			</g>
			<g    transform="translate(174.185,-11.6716)">
				
				<desc>COM</desc>
				<v:textBlock v:margins="rect(0,0,0,0)" v:tabSpace="42.5197"/>
				<v:textRect cx="8.81392" cy="95.5203" width="17.63" height="6.48168"/>
				<path d="M17.63 92.28 L0 92.28 L0 98.76 L17.63 98.76 L17.63 92.28" class="st11_ae7bb8bf8bb98"/>
				<text x="4.75" y="96.57" class="st12_ae7bb8bf8bb98" ><v:paragraph v:horizAlign="1"/><v:tabList/>COM</text>			</g>
			<g    transform="translate(218.927,-23.6751)">
				
				<path d="M41.59 67.53 L0 67.53 L0 98.76 L41.59 98.76 L41.59 67.53 L41.59 67.53 Z" class="st27_ae7bb8bf8bb98"/>
			</g>
			<g    transform="translate(223.777,-23.832)">
				
				<v:custProps>
					<v:cp  v:lbl="端口号" v:type="0"  v:val="VT4(1)"/>
				</v:custProps>
				<path d="M0 71.54 L0 90.05 L7.8 90.05 L7.8 94.41 L10.97 94.41 L10.97 98.76 L20.23 98.76 L20.23 94.41 L23.4 94.41
							 L23.4 90.05 L31.2 90.05 L31.2 71.54 L0 71.54 L0 71.54 Z" class="st28_ae7bb8bf8bb98"/>
			</g>
			<g    transform="translate(263.586,-23.6751)">
				
				<path d="M41.59 67.53 L0 67.53 L0 98.76 L41.59 98.76 L41.59 67.53 L41.59 67.53 Z" class="st27_ae7bb8bf8bb98"/>
			</g>
			<g    transform="translate(268.508,-23.832)">
				
				<v:custProps>
					<v:cp  v:lbl="端口号" v:type="0"  v:val="VT4(2)"/>
				</v:custProps>
				<path d="M0 71.54 L0 90.05 L7.8 90.05 L7.8 94.41 L10.97 94.41 L10.97 98.76 L20.23 98.76 L20.23 94.41 L23.4 94.41
							 L23.4 90.05 L31.2 90.05 L31.2 71.54 L0 71.54 L0 71.54 Z" class="st28_ae7bb8bf8bb98"/>
			</g>
			<g    transform="translate(232.165,-11.6716)">
				
				<desc>LAN1</desc>
				<v:textBlock v:margins="rect(0,0,0,0)" v:tabSpace="42.5197"/>
				<v:textRect cx="9.68189" cy="95.5203" width="19.37" height="6.48168"/>
				<path d="M19.36 92.28 L0 92.28 L0 98.76 L19.36 98.76 L19.36 92.28" class="st11_ae7bb8bf8bb98"/>
				<text x="5.13" y="96.57" class="st12_ae7bb8bf8bb98" ><v:paragraph v:horizAlign="1"/><v:tabList/>LAN1</text>			</g>
			<g    transform="translate(276.878,-11.6716)">
				
				<desc>LAN2</desc>
				<v:textBlock v:margins="rect(0,0,0,0)" v:tabSpace="42.5197"/>
				<v:textRect cx="9.68189" cy="95.5203" width="19.37" height="6.48168"/>
				<path d="M19.36 92.28 L0 92.28 L0 98.76 L19.36 98.76 L19.36 92.28" class="st11_ae7bb8bf8bb98"/>
				<text x="5.13" y="96.57" class="st12_ae7bb8bf8bb98" ><v:paragraph v:horizAlign="1"/><v:tabList/>LAN2</text>			</g>
			<g    transform="translate(467.492,-23.6751)">
				
				<path d="M41.59 67.53 L0 67.53 L0 98.76 L41.59 98.76 L41.59 67.53 L41.59 67.53 Z" class="st27_ae7bb8bf8bb98"/>
			</g>
			<g    transform="translate(472.42,-23.832)">
				
				<v:custProps>
					<v:cp  v:lbl="端口号" v:type="0"  v:val="VT4(4)"/>
				</v:custProps>
				<path d="M0 71.54 L0 90.05 L7.8 90.05 L7.8 94.41 L10.97 94.41 L10.97 98.76 L20.23 98.76 L20.23 94.41 L23.4 94.41
							 L23.4 90.05 L31.2 90.05 L31.2 71.54 L0 71.54 L0 71.54 Z" class="st28_ae7bb8bf8bb98"/>
			</g>
			<g    transform="translate(480.79,-11.6716)">
				
				<desc>LAN4</desc>
				<v:textBlock v:margins="rect(0,0,0,0)" v:tabSpace="42.5197"/>
				<v:textRect cx="9.68189" cy="95.5203" width="19.37" height="6.48168"/>
				<path d="M19.36 92.28 L0 92.28 L0 98.76 L19.36 98.76 L19.36 92.28" class="st11_ae7bb8bf8bb98"/>
				<text x="5.13" y="96.57" class="st12_ae7bb8bf8bb98" ><v:paragraph v:horizAlign="1"/><v:tabList/>LAN4</text>			</g>
			<g    transform="translate(407.09,-8.76208)">
				
				<ellipse cx="4.94453" cy="93.8218" rx="4.94453" ry="4.93934" class="st15_ae7bb8bf8bb98"/>
			</g>
			<g    transform="translate(407.09,-8.76208)">
				
				<ellipse cx="4.94453" cy="93.8218" rx="4.94453" ry="4.93934" class="st4_ae7bb8bf8bb98"/>
				<ellipse cx="4.94453" cy="93.8218" rx="4.94453" ry="4.93934" class="st16_ae7bb8bf8bb98"/>
			</g>
			<g    transform="translate(407.561,-9.2325)">
				
				<ellipse cx="4.47362" cy="94.2922" rx="4.47362" ry="4.46893" class="st17_ae7bb8bf8bb98"/>
			</g>
			<g    transform="translate(407.561,-9.2325)">
				
				<ellipse cx="4.47362" cy="94.2922" rx="4.47362" ry="4.46893" class="st4_ae7bb8bf8bb98"/>
				<ellipse cx="4.47362" cy="94.2922" rx="4.47362" ry="4.46893" class="st18_ae7bb8bf8bb98"/>
			</g>
			<g    transform="translate(408.188,-8.60528)">
				
				<path d="M0.47 93.43 L0.31 93.43 L0.16 93.59 L0.16 93.74 L0 93.74 L0 94.68 L0.16 94.68 L0.16 94.84 L0.31 95 L3.61
							 95 L3.61 98.45 L3.77 98.45 L3.77 98.6 L3.92 98.6 L3.92 98.76 L4.87 98.76 L4.87 98.6 L5.02 98.6 L5.02
							 98.45 L5.18 98.45 L5.18 95 L8.63 95 L8.63 94.84 L8.79 94.84 L8.79 94.68 L8.95 94.68 L8.95 93.74 L8.79
							 93.74 L8.79 93.59 L8.63 93.59 L8.63 93.43 L5.18 93.43 L5.18 90.14 L5.02 89.98 L4.87 89.98 L4.87 89.82
							 L3.92 89.82 L3.92 89.98 L3.77 89.98 L3.61 90.14 L3.61 93.43 L0.63 93.43 L0.47 93.43 L0.47 93.43 Z"
						class="st19_ae7bb8bf8bb98"/>
			</g>
			<g    transform="translate(408.031,-8.44848)">
				
				<path d="M0 93.74 L0 94.53 L0.16 94.68 L0.31 94.68 L0.31 94.84 L3.77 94.84 L3.77 98.45 L3.92 98.6 L4.08 98.6 L4.08
							 98.76 L4.55 98.76 L4.71 98.76" class="st18_ae7bb8bf8bb98"/>
			</g>
			<g    transform="translate(411.799,-13.9366)">
				
				<path d="M0 95.47 L0 98.6 L0 98.76" class="st18_ae7bb8bf8bb98"/>
			</g>
			<g    transform="translate(308.333,-23.6751)">
				
				<path d="M41.59 67.53 L0 67.53 L0 98.76 L41.59 98.76 L41.59 67.53 L41.59 67.53 Z" class="st27_ae7bb8bf8bb98"/>
			</g>
			<g    transform="translate(313.24,-23.832)">
				
				<v:custProps>
					<v:cp  v:lbl="端口号" v:type="0"  v:val="VT4(3)"/>
				</v:custProps>
				<path d="M0 71.54 L0 90.05 L7.8 90.05 L7.8 94.41 L10.97 94.41 L10.97 98.76 L20.23 98.76 L20.23 94.41 L23.4 94.41
							 L23.4 90.05 L31.2 90.05 L31.2 71.54 L0 71.54 L0 71.54 Z" class="st28_ae7bb8bf8bb98"/>
			</g>
			<g    transform="translate(321.591,-11.6716)">
				
				<desc>LAN3</desc>
				<v:textBlock v:margins="rect(0,0,0,0)" v:tabSpace="42.5197"/>
				<v:textRect cx="9.68189" cy="95.5203" width="19.37" height="6.48168"/>
				<path d="M19.36 92.28 L0 92.28 L0 98.76 L19.36 98.76 L19.36 92.28" class="st11_ae7bb8bf8bb98"/>
				<text x="5.13" y="96.57" class="st12_ae7bb8bf8bb98" ><v:paragraph v:horizAlign="1"/><v:tabList/>LAN3</text>			</g>
			<g    transform="translate(429.775,-35.656)">
				
				<ellipse cx="4.25466" cy="94.5123" rx="4.25466" ry="4.24887" class="st29_ae7bb8bf8bb98"/>
			</g>
			<g    transform="translate(429.775,-35.656)">
				
				<ellipse cx="4.25466" cy="94.5123" rx="4.25466" ry="4.24887" class="st4_ae7bb8bf8bb98"/>
				<ellipse cx="4.25466" cy="94.5123" rx="4.25466" ry="4.24887" class="st30_ae7bb8bf8bb98"/>
			</g>
			<g    transform="translate(430.254,-36.1347)">
				
				<ellipse cx="3.77526" cy="94.991" rx="3.77526" ry="3.77013" class="st31_ae7bb8bf8bb98"/>
			</g>
			<g    transform="translate(430.254,-36.1347)">
				
				<ellipse cx="3.77526" cy="94.991" rx="3.77526" ry="3.77013" class="st4_ae7bb8bf8bb98"/>
				<ellipse cx="3.77526" cy="94.991" rx="3.77526" ry="3.77013" class="st30_ae7bb8bf8bb98"/>
			</g>
			<g    transform="translate(428.706,-11.6716)">
				
				<desc>RST</desc>
				<v:textBlock v:margins="rect(0,0,0,0)" v:tabSpace="42.5197"/>
				<v:textRect cx="7.77589" cy="95.5203" width="15.56" height="6.48168"/>
				<path d="M15.55 92.28 L0 92.28 L0 98.76 L15.55 98.76 L15.55 92.28" class="st11_ae7bb8bf8bb98"/>
				<text x="4.29" y="96.57" class="st12_ae7bb8bf8bb98" ><v:paragraph v:horizAlign="1"/><v:tabList/>RST</text>			</g>
		</g>
	</g>
</svg>
