<?xml version="1.0" encoding="UTF-8" standalone="no"?>
<!DOCTYPE svg PUBLIC "-//W3C//DTD SVG 1.1//EN" "http://www.w3.org/Graphics/SVG/1.1/DTD/svg11.dtd">
<!-- 由 Microsoft Visio, SVG Export 生成 1.3.6.1.4.1.2011.2.23.21.svg Page-1 -->
<svg xmlns="http://www.w3.org/2000/svg" xmlns:xlink="http://www.w3.org/1999/xlink" xmlns:ev="http://www.w3.org/2001/xml-events"
		xmlns:v="http://schemas.microsoft.com/visio/2003/SVGExtensions/" width="8.26772in" height="11.6929in"
		viewBox="0 0 595.276 841.89" xml:space="preserve" color-interpolation-filters="sRGB" class="st20_3b276b54f0e0f">
	<v:documentProperties  v:viewMarkup="false">
		<v:userDefs>
			<v:ud />
		</v:userDefs>
	</v:documentProperties>

	<style type="text/css">
	<![CDATA[
		.st1_3b276b54f0e0f {stroke:#000000;stroke-linecap:round;stroke-linejoin:round;stroke-width:0.75}
		.st2_3b276b54f0e0f {fill:#7f7f7f;stroke:#000000;stroke-linecap:round;stroke-linejoin:round;stroke-width:0.306326}
		.st3_3b276b54f0e0f {fill:#7f7f7f;stroke:#999999;stroke-linecap:round;stroke-linejoin:round;stroke-width:0.0612653}
		.st4_3b276b54f0e0f {stroke:#494949;stroke-linecap:round;stroke-linejoin:round;stroke-width:0.0612653}
		.st5_3b276b54f0e0f {fill:#333333;stroke:#333333;stroke-linecap:round;stroke-linejoin:round;stroke-width:0.0612653}
		.st6_3b276b54f0e0f {fill:#999999;stroke:#999999;stroke-linecap:round;stroke-linejoin:round;stroke-width:0.0612653}
		.st7_3b276b54f0e0f {fill:#efefef;stroke:#0a0a0a;stroke-linecap:round;stroke-linejoin:round;stroke-width:0.0458602}
		.st8_3b276b54f0e0f {fill:#bc7e7e;stroke:#000000;stroke-linecap:round;stroke-linejoin:round;stroke-width:0.0389891}
		.st9_3b276b54f0e0f {fill:#efefef;stroke:#0a0a0a;stroke-linecap:round;stroke-linejoin:round;stroke-width:0.134081}
		.st10_3b276b54f0e0f {fill:#000000;stroke:#0a0a0a;stroke-linecap:round;stroke-linejoin:round;stroke-width:0.049139}
		.st11_3b276b54f0e0f {fill:#000000;stroke:#0a0a0a;stroke-linecap:round;stroke-linejoin:round;stroke-width:0.0494679}
		.st12_3b276b54f0e0f {fill:#efefef;stroke:#0a0a0a;stroke-linecap:round;stroke-linejoin:round;stroke-width:0.133827}
		.st13_3b276b54f0e0f {fill:#ffffff;stroke:none;stroke-linecap:round;stroke-linejoin:round;stroke-width:0.75}
		.st14_3b276b54f0e0f {stroke:none;stroke-linecap:round;stroke-linejoin:round;stroke-width:0.75}
		.st15_3b276b54f0e0f {fill:#ffffff;font-family:Arial;font-size:0.885452em;font-weight:bold}
		.st16_3b276b54f0e0f {fill:#ffffff;font-family:Arial;font-size:0.798409em}
		.st17_3b276b54f0e0f {fill:#000000;stroke:#0a0a0a;stroke-linecap:round;stroke-linejoin:round;stroke-width:0.0388918}
		.st18_3b276b54f0e0f {fill:#ffffff;font-family:Arial;font-size:0.737em}
		.st19_3b276b54f0e0f {fill:#00ff00;stroke:#000000;stroke-linecap:round;stroke-linejoin:round;stroke-width:0.117772}
		.st20_3b276b54f0e0f {fill:none;fill-rule:evenodd;font-size:12px;overflow:visible;stroke-linecap:square;stroke-miterlimit:3}
	]]>
	</style>

	<g  v:index="1" v:groupContext="foregroundPage">
		<title>Page-1</title>
		<v:pageProperties v:drawingScale="0.0393701" v:pageScale="0.0393701" v:drawingUnits="24" v:shadowOffsetX="8.50394"
				v:shadowOffsetY="-8.50394"/>
		<v:layer v:name="Network" v:index="0"/>
		<g id="group2-1" transform="translate(0.122514,-789.439)"  v:groupContext="group">
			<v:custProps>
				<v:cp  v:lbl="SysOid" v:type="0"  v:val="VT4(1.3.6.1.4.1.2011.2.23.21)"/>
				<v:cp  v:lbl="模块数" v:type="0"  v:val="VT4(0)"/>
				<v:cp  v:lbl="端口数" v:type="0"  v:val="VT4(24)"/>
				<v:cp  v:lbl="端口灯数" v:type="0"  v:val="VT4(24)"/>
			</v:custProps>
			<title>工作表.2</title>
			<g    transform="translate(493.56,-22.981)">
				<title>工作表.4</title>
				<path d="M0 828.81 L0 841.89 L5.52 841.89" class="st1_3b276b54f0e0f"/>
			</g>
			<g    transform="translate(499.076,-36.0565)">
				<title>工作表.5</title>
				<path d="M0 841.89 L10.89 841.89" class="st1_3b276b54f0e0f"/>
			</g>
			<g    transform="translate(504.447,-22.981)">
				<title>工作表.6</title>
				<path d="M0 828.81 L0 841.89" class="st1_3b276b54f0e0f"/>
			</g>
			<g    transform="translate(512.721,-22.981)">
				<title>工作表.7</title>
				<path d="M0 828.81 L0 841.89" class="st1_3b276b54f0e0f"/>
			</g>
			<g    transform="translate(518.092,-22.981)">
				<title>工作表.8</title>
				<path d="M0 841.89 L0 828.81 L5.52 841.89 L11.03 828.81 L11.03 841.89" class="st1_3b276b54f0e0f"/>
			</g>
			<g    transform="translate(531.737,-22.981)">
				<title>工作表.9</title>
				<path d="M0 841.89 L5.52 828.81 L11.03 841.89" class="st1_3b276b54f0e0f"/>
			</g>
			<g    transform="translate(512.721,-22.981)">
				
				<path d="M0 828.81 L0 841.89" class="st1_3b276b54f0e0f"/>
			</g>
			<g    transform="translate(477.157,-22.981)">
				
				<path d="M0 841.89 L5.52 828.81 L11.03 841.89" class="st1_3b276b54f0e0f"/>
			</g>
			<g    transform="translate(533.188,-26.2499)">
				
				<path d="M0 841.89 L8.13 841.89" class="st1_3b276b54f0e0f"/>
			</g>
			<g    transform="translate(478.609,-26.2499)">
				
				<path d="M0 841.89 L8.13 841.89" class="st1_3b276b54f0e0f"/>
			</g>
			<g   >
				
				<path d="M594.93 789.44 L0 789.44 L0 841.89 L594.93 841.89 L594.93 789.44 L594.93 789.44 Z" class="st2_3b276b54f0e0f"/>
			</g>
			<g    transform="translate(28.9132,0)">
				
				<path d="M537.1 789.44 L0 789.44 L0 841.89 L537.1 841.89 L537.1 789.44 L537.1 789.44 Z" class="st2_3b276b54f0e0f"/>
			</g>
			<g    transform="translate(466.041,-6.86266)">
				
				<path d="M92.13 803.16 L0 803.16 L0 841.89 L92.13 841.89 L92.13 803.16 L92.13 803.16 Z" class="st3_3b276b54f0e0f"/>
			</g>
			<g    transform="translate(466.041,-6.86266)">
				
				<path d="M0 803.16 L0 841.89 L92.13 841.89" class="st4_3b276b54f0e0f"/>
			</g>
			<g    transform="translate(84.7794,-6.86266)">
				
				<path d="M373.42 803.16 L0 803.16 L0 841.89 L373.42 841.89 L373.42 803.16 L373.42 803.16 Z" class="st5_3b276b54f0e0f"/>
			</g>
			<g    transform="translate(382.732,-9.31361)">
				
				<path d="M56.85 808.07 L0 808.07 L0 841.89 L56.85 841.89 L56.85 808.07 L56.85 808.07 Z" class="st6_3b276b54f0e0f"/>
			</g>
			<g    transform="translate(351.553,-10.3835)">
				
				<path d="M21.48 825.27 L0 825.27 L0 841.89 L21.48 841.89 L21.48 825.27 L21.48 825.27 Z" class="st7_3b276b54f0e0f"/>
			</g>
			<g    transform="translate(351.797,-28.0892)">
				
				<path d="M20.99 837.31 L20.99 837.2 L20.95 837.09 L20.91 837.02 L20.74 836.88 L20.66 836.84 L20.53 836.8 L0.46 836.8
							 L0.33 836.84 L0.25 836.88 L0.08 837.02 L0.04 837.09 L0 837.2 L0 841.49 L0.04 841.6 L0.08 841.67 L0.25
							 841.82 L0.33 841.85 L0.46 841.89 L20.53 841.89 L20.66 841.85 L20.74 841.82 L20.91 841.67 L20.95 841.6
							 L20.99 841.49 L20.99 841.38 L20.99 837.31 L20.99 837.31 Z" class="st8_3b276b54f0e0f"/>
			</g>
			<g    transform="translate(85.3171,-10.2997)">
				
				<path d="M82.48 808.18 L0 808.18 L0 841.89 L82.48 841.89 L82.48 808.18 L82.48 808.18 Z" class="st9_3b276b54f0e0f"/>
			</g>
			<g    transform="translate(88.0927,-29.333)">
				
				<v:custProps>
					<v:cp  v:lbl="端口号" v:type="0"  v:val="VT4(1)"/>
				</v:custProps>
				<path d="M0 841.89 L0 834.57 L3.64 834.57 L3.64 830.93 L7.32 830.93 L7.32 827.25 L10.96 827.25 L10.96 830.93 L14.65
							 830.93 L14.65 834.57 L18.28 834.57 L18.28 841.89 L0 841.89 L0 841.89 Z" class="st10_3b276b54f0e0f"/>
			</g>
			<g    transform="translate(107.701,-29.333)">
				
				<v:custProps>
					<v:cp  v:lbl="端口号" v:type="0"  v:val="VT4(3)"/>
				</v:custProps>
				<path d="M0 841.89 L0 834.57 L3.69 834.57 L3.69 830.93 L7.42 830.93 L7.42 827.25 L11.11 827.25 L11.11 830.93 L14.84
							 830.93 L14.84 834.57 L18.53 834.57 L18.53 841.89 L0 841.89 L0 841.89 Z" class="st11_3b276b54f0e0f"/>
			</g>
			<g    transform="translate(127.31,-29.333)">
				
				<v:custProps>
					<v:cp  v:lbl="端口号" v:type="0"  v:val="VT4(5)"/>
				</v:custProps>
				<path d="M0 841.89 L0 834.57 L3.64 834.57 L3.64 830.93 L7.32 830.93 L7.32 827.25 L10.96 827.25 L10.96 830.93 L14.65
							 830.93 L14.65 834.57 L18.28 834.57 L18.28 841.89 L0 841.89 L0 841.89 Z" class="st10_3b276b54f0e0f"/>
			</g>
			<g    transform="translate(147.165,-29.333)">
				
				<v:custProps>
					<v:cp  v:lbl="端口号" v:type="0"  v:val="VT4(7)"/>
				</v:custProps>
				<path d="M0 841.89 L0 834.57 L3.64 834.57 L3.64 830.93 L7.32 830.93 L7.32 827.25 L10.96 827.25 L10.96 830.93 L14.65
							 830.93 L14.65 834.57 L18.28 834.57 L18.28 841.89 L0 841.89 L0 841.89 Z" class="st10_3b276b54f0e0f"/>
			</g>
			<g    transform="translate(88.0927,-10.1711)">
				
				<v:custProps>
					<v:cp  v:lbl="端口号" v:type="0"  v:val="VT4(2)"/>
				</v:custProps>
				<path d="M0 827.25 L0 834.57 L3.64 834.57 L3.64 838.2 L7.32 838.2 L7.32 841.89 L10.96 841.89 L10.96 838.2 L14.65
							 838.2 L14.65 834.57 L18.28 834.57 L18.28 827.25 L0 827.25 L0 827.25 Z" class="st10_3b276b54f0e0f"/>
			</g>
			<g    transform="translate(107.701,-10.1711)">
				
				<v:custProps>
					<v:cp  v:lbl="端口号" v:type="0"  v:val="VT4(4)"/>
				</v:custProps>
				<path d="M0 827.25 L0 834.57 L3.69 834.57 L3.69 838.2 L7.42 838.2 L7.42 841.89 L11.11 841.89 L11.11 838.2 L14.84
							 838.2 L14.84 834.57 L18.53 834.57 L18.53 827.25 L0 827.25 L0 827.25 Z" class="st11_3b276b54f0e0f"/>
			</g>
			<g    transform="translate(127.31,-10.1711)">
				
				<v:custProps>
					<v:cp  v:lbl="端口号" v:type="0"  v:val="VT4(6)"/>
				</v:custProps>
				<path d="M0 827.25 L0 834.57 L3.64 834.57 L3.64 838.2 L7.32 838.2 L7.32 841.89 L10.96 841.89 L10.96 838.2 L14.65
							 838.2 L14.65 834.57 L18.28 834.57 L18.28 827.25 L0 827.25 L0 827.25 Z" class="st10_3b276b54f0e0f"/>
			</g>
			<g    transform="translate(147.165,-10.1711)">
				
				<v:custProps>
					<v:cp  v:lbl="端口号" v:type="0"  v:val="VT4(8)"/>
				</v:custProps>
				<path d="M0 827.25 L0 834.57 L3.64 834.57 L3.64 838.2 L7.32 838.2 L7.32 841.89 L10.96 841.89 L10.96 838.2 L14.65
							 838.2 L14.65 834.57 L18.28 834.57 L18.28 827.25 L0 827.25 L0 827.25 Z" class="st10_3b276b54f0e0f"/>
			</g>
			<g    transform="translate(176.331,-10.2997)">
				
				<path d="M82.24 808.18 L0 808.18 L0 841.89 L82.24 841.89 L82.24 808.18 L82.24 808.18 Z" class="st12_3b276b54f0e0f"/>
			</g>
			<g    transform="translate(178.765,-29.333)">
				
				<v:custProps>
					<v:cp  v:lbl="端口号" v:type="0"  v:val="VT4(9)"/>
				</v:custProps>
				<path d="M0 841.89 L0 834.57 L3.64 834.57 L3.64 830.93 L7.32 830.93 L7.32 827.25 L10.96 827.25 L10.96 830.93 L14.65
							 830.93 L14.65 834.57 L18.28 834.57 L18.28 841.89 L0 841.89 L0 841.89 Z" class="st10_3b276b54f0e0f"/>
			</g>
			<g    transform="translate(198.641,-29.333)">
				
				<v:custProps>
					<v:cp  v:lbl="端口号" v:type="0"  v:val="VT4(11)"/>
				</v:custProps>
				<path d="M0 841.89 L0 834.57 L3.69 834.57 L3.69 830.93 L7.42 830.93 L7.42 827.25 L11.11 827.25 L11.11 830.93 L14.84
							 830.93 L14.84 834.57 L18.53 834.57 L18.53 841.89 L0 841.89 L0 841.89 Z" class="st11_3b276b54f0e0f"/>
			</g>
			<g    transform="translate(218.263,-29.333)">
				
				<v:custProps>
					<v:cp  v:lbl="端口号" v:type="0"  v:val="VT4(13)"/>
				</v:custProps>
				<path d="M0 841.89 L0 834.57 L3.69 834.57 L3.69 830.93 L7.42 830.93 L7.42 827.25 L11.11 827.25 L11.11 830.93 L14.84
							 830.93 L14.84 834.57 L18.53 834.57 L18.53 841.89 L0 841.89 L0 841.89 Z" class="st11_3b276b54f0e0f"/>
			</g>
			<g    transform="translate(238.084,-29.333)">
				
				<v:custProps>
					<v:cp  v:lbl="端口号" v:type="0"  v:val="VT4(15)"/>
				</v:custProps>
				<path d="M0 841.89 L0 834.57 L3.69 834.57 L3.69 830.93 L7.42 830.93 L7.42 827.25 L11.11 827.25 L11.11 830.93 L14.84
							 830.93 L14.84 834.57 L18.53 834.57 L18.53 841.89 L0 841.89 L0 841.89 Z" class="st11_3b276b54f0e0f"/>
			</g>
			<g    transform="translate(178.765,-10.1711)">
				
				<v:custProps>
					<v:cp  v:lbl="端口号" v:type="0"  v:val="VT4(10)"/>
				</v:custProps>
				<path d="M0 827.25 L0 834.57 L3.64 834.57 L3.64 838.2 L7.32 838.2 L7.32 841.89 L10.96 841.89 L10.96 838.2 L14.65
							 838.2 L14.65 834.57 L18.28 834.57 L18.28 827.25 L0 827.25 L0 827.25 Z" class="st10_3b276b54f0e0f"/>
			</g>
			<g    transform="translate(198.641,-10.1711)">
				
				<v:custProps>
					<v:cp  v:lbl="端口号" v:type="0"  v:val="VT4(12)"/>
				</v:custProps>
				<path d="M0 827.25 L0 834.57 L3.69 834.57 L3.69 838.2 L7.42 838.2 L7.42 841.89 L11.11 841.89 L11.11 838.2 L14.84
							 838.2 L14.84 834.57 L18.53 834.57 L18.53 827.25 L0 827.25 L0 827.25 Z" class="st11_3b276b54f0e0f"/>
			</g>
			<g    transform="translate(218.263,-10.1711)">
				
				<v:custProps>
					<v:cp  v:lbl="端口号" v:type="0"  v:val="VT4(14)"/>
				</v:custProps>
				<path d="M0 827.25 L0 834.57 L3.69 834.57 L3.69 838.2 L7.42 838.2 L7.42 841.89 L11.11 841.89 L11.11 838.2 L14.84
							 838.2 L14.84 834.57 L18.53 834.57 L18.53 827.25 L0 827.25 L0 827.25 Z" class="st11_3b276b54f0e0f"/>
			</g>
			<g    transform="translate(238.084,-10.1711)">
				
				<v:custProps>
					<v:cp  v:lbl="端口号" v:type="0"  v:val="VT4(16)"/>
				</v:custProps>
				<path d="M0 827.25 L0 834.57 L3.69 834.57 L3.69 838.2 L7.42 838.2 L7.42 841.89 L11.11 841.89 L11.11 838.2 L14.84
							 838.2 L14.84 834.57 L18.53 834.57 L18.53 827.25 L0 827.25 L0 827.25 Z" class="st11_3b276b54f0e0f"/>
			</g>
			<g    transform="translate(266.985,-10.2997)">
				
				<path d="M82.48 808.18 L0 808.18 L0 841.89 L82.48 841.89 L82.48 808.18 L82.48 808.18 Z" class="st9_3b276b54f0e0f"/>
			</g>
			<g    transform="translate(269.46,-29.333)">
				
				<v:custProps>
					<v:cp  v:lbl="端口号" v:type="0"  v:val="VT4(17)"/>
				</v:custProps>
				<path d="M0 841.89 L0 834.57 L3.69 834.57 L3.69 830.93 L7.42 830.93 L7.42 827.25 L11.11 827.25 L11.11 830.93 L14.84
							 830.93 L14.84 834.57 L18.53 834.57 L18.53 841.89 L0 841.89 L0 841.89 Z" class="st11_3b276b54f0e0f"/>
			</g>
			<g    transform="translate(289.332,-29.333)">
				
				<v:custProps>
					<v:cp  v:lbl="端口号" v:type="0"  v:val="VT4(19)"/>
				</v:custProps>
				<path d="M0 841.89 L0 834.57 L3.69 834.57 L3.69 830.93 L7.42 830.93 L7.42 827.25 L11.11 827.25 L11.11 830.93 L14.84
							 830.93 L14.84 834.57 L18.53 834.57 L18.53 841.89 L0 841.89 L0 841.89 Z" class="st11_3b276b54f0e0f"/>
			</g>
			<g    transform="translate(308.901,-29.333)">
				
				<v:custProps>
					<v:cp  v:lbl="端口号" v:type="0"  v:val="VT4(21)"/>
				</v:custProps>
				<path d="M0 841.89 L0 834.57 L3.64 834.57 L3.64 830.93 L7.32 830.93 L7.32 827.25 L10.96 827.25 L10.96 830.93 L14.65
							 830.93 L14.65 834.57 L18.28 834.57 L18.28 841.89 L0 841.89 L0 841.89 Z" class="st10_3b276b54f0e0f"/>
			</g>
			<g    transform="translate(328.775,-29.333)">
				
				<v:custProps>
					<v:cp  v:lbl="端口号" v:type="0"  v:val="VT4(23)"/>
				</v:custProps>
				<path d="M0 841.89 L0 834.57 L3.69 834.57 L3.69 830.93 L7.42 830.93 L7.42 827.25 L11.11 827.25 L11.11 830.93 L14.84
							 830.93 L14.84 834.57 L18.53 834.57 L18.53 841.89 L0 841.89 L0 841.89 Z" class="st11_3b276b54f0e0f"/>
			</g>
			<g    transform="translate(269.46,-10.1711)">
				
				<v:custProps>
					<v:cp  v:lbl="端口号" v:type="0"  v:val="VT4(18)"/>
				</v:custProps>
				<path d="M0 827.25 L0 834.57 L3.69 834.57 L3.69 838.2 L7.42 838.2 L7.42 841.89 L11.11 841.89 L11.11 838.2 L14.84
							 838.2 L14.84 834.57 L18.53 834.57 L18.53 827.25 L0 827.25 L0 827.25 Z" class="st11_3b276b54f0e0f"/>
			</g>
			<g    transform="translate(289.332,-10.1711)">
				
				<v:custProps>
					<v:cp  v:lbl="端口号" v:type="0"  v:val="VT4(20)"/>
				</v:custProps>
				<path d="M0 827.25 L0 834.57 L3.69 834.57 L3.69 838.2 L7.42 838.2 L7.42 841.89 L11.11 841.89 L11.11 838.2 L14.84
							 838.2 L14.84 834.57 L18.53 834.57 L18.53 827.25 L0 827.25 L0 827.25 Z" class="st11_3b276b54f0e0f"/>
			</g>
			<g    transform="translate(308.901,-10.1711)">
				
				<v:custProps>
					<v:cp  v:lbl="端口号" v:type="0"  v:val="VT4(22)"/>
				</v:custProps>
				<path d="M0 827.25 L0 834.57 L3.64 834.57 L3.64 838.2 L7.32 838.2 L7.32 841.89 L10.96 841.89 L10.96 838.2 L14.65
							 838.2 L14.65 834.57 L18.28 834.57 L18.28 827.25 L0 827.25 L0 827.25 Z" class="st10_3b276b54f0e0f"/>
			</g>
			<g    transform="translate(328.775,-10.1711)">
				
				<v:custProps>
					<v:cp  v:lbl="端口号" v:type="0"  v:val="VT4(24)"/>
				</v:custProps>
				<path d="M0 827.25 L0 834.57 L3.69 834.57 L3.69 838.2 L7.42 838.2 L7.42 841.89 L11.11 841.89 L11.11 838.2 L14.84
							 838.2 L14.84 834.57 L18.53 834.57 L18.53 827.25 L0 827.25 L0 827.25 Z" class="st11_3b276b54f0e0f"/>
			</g>
			<g    transform="translate(482.964,-27.4018)">
				
				<path d="M1.49 832.81 L1.49 833.64 L1.37 833.95 L1.37 835.29 L1.24 835.7 L1.24 837.35 L1.12 837.76 L1.12 839 L0.99
							 839.41 L0.99 840.76 L0.87 841.06 L0.87 841.89 L0.62 841.89 L0.62 841.06 L0.5 840.76 L0.5 839.41 L0.37
							 839 L0.37 837.35 L0.25 836.94 L0.25 835.7 L0.12 835.29 L0.12 833.95 L0 833.64 L0 832.61 L0.12 832.61
							 L0.12 832.5 L0.37 832.3 L0.62 832.3 L0.74 832.19 L0.99 832.19 L0.99 832.3 L1.24 832.3 L1.49 832.5 L1.49
							 832.71 L1.49 832.81 L1.49 832.81 Z" class="st13_3b276b54f0e0f"/>
			</g>
			<g    transform="translate(481.226,-27.4018)">
				
				<path d="M1.49 833.12 L1.49 833.95 L1.61 834.15 L1.61 835.49 L1.74 835.91 L1.74 837.14 L1.86 837.56 L1.86 839.1 L1.99
							 839.52 L1.99 840.86 L2.11 841.06 L2.11 841.89 L1.99 841.89 L1.99 841.68 L1.86 841.48 L1.86 841.06 L1.74
							 840.86 L1.74 840.55 L1.49 839.93 L1.49 839.52 L1.37 839.1 L1.24 838.79 L1.12 838.38 L1.12 837.97 L0.87
							 837.14 L0.87 836.73 L0.74 836.32 L0.62 836.01 L0.5 835.6 L0.5 835.18 L0.37 834.87 L0.37 834.57 L0.25
							 834.26 L0.12 834.05 L0.12 833.64 L0 833.43 L0 832.91 L0.12 832.81 L0.12 832.71 L0.25 832.71 L0.25 832.61
							 L0.5 832.61 L0.5 832.5 L0.99 832.5 L1.12 832.61 L1.24 832.61 L1.24 832.71 L1.37 832.81 L1.37 832.91
							 L1.49 832.91 L1.49 833.02 L1.49 833.12 L1.49 833.12 Z" class="st13_3b276b54f0e0f"/>
			</g>
			<g    transform="translate(479.364,-27.4018)">
				
				<path d="M1.37 833.64 L1.37 833.84 L1.49 833.95 L1.49 834.36 L1.74 834.98 L1.74 835.18 L1.86 835.6 L1.86 835.91 L1.99
							 836.22 L2.23 837.04 L2.23 837.35 L2.48 838.18 L2.48 838.49 L2.73 839.31 L2.85 839.62 L2.85 839.93 L2.98
							 840.34 L3.1 840.65 L3.1 840.86 L3.23 841.17 L3.23 841.58 L3.35 841.68 L3.35 841.89 L3.23 841.89 L3.23
							 841.79 L3.1 841.68 L3.1 841.58 L2.98 841.37 L2.98 841.17 L2.85 840.96 L2.23 839.41 L2.11 839 L1.86 838.69
							 L1.74 838.28 L1.61 837.97 L1.37 837.14 L1.12 836.83 L0.99 836.42 L0.37 834.87 L0.25 834.67 L0.25 834.46
							 L0.12 834.26 L0.12 834.15 L0 834.05 L0 833.53 L0.12 833.53 L0.12 833.43 L0.37 833.22 L0.5 833.22 L0.62
							 833.12 L0.87 833.12 L0.87 833.22 L1.12 833.22 L1.12 833.33 L1.24 833.33 L1.24 833.43 L1.37 833.53 L1.37
							 833.64 L1.37 833.64 Z" class="st13_3b276b54f0e0f"/>
			</g>
			<g    transform="translate(478.123,-27.4018)">
				
				<path d="M1.37 834.36 L1.37 834.46 L1.49 834.57 L1.49 834.67 L1.61 834.87 L1.61 835.08 L1.86 835.49 L1.86 835.8 L2.36
							 837.04 L2.48 837.45 L2.61 837.76 L2.85 838.18 L3.1 838.79 L3.23 839.21 L3.72 840.45 L3.72 840.76 L3.97
							 841.17 L3.97 841.37 L4.1 841.58 L4.1 841.68 L4.22 841.79 L4.22 841.89 L4.1 841.89 L4.1 841.79 L3.97
							 841.68 L3.97 841.58 L3.85 841.37 L3.72 841.27 L3.6 841.06 L3.48 840.76 L3.35 840.55 L3.1 840.24 L2.85
							 839.62 L2.61 839.31 L2.48 839 L2.23 838.69 L2.11 838.38 L1.86 837.97 L1.61 837.66 L1.49 837.35 L1.24
							 837.04 L0.99 836.42 L0.74 836.11 L0.62 835.91 L0.5 835.6 L0.37 835.39 L0.25 835.29 L0.12 835.08 L0.12
							 834.98 L0 834.87 L0 834.26 L0.12 834.26 L0.12 834.15 L0.25 834.15 L0.25 834.05 L0.5 834.05 L0.62 833.95
							 L0.87 833.95 L0.87 834.05 L1.12 834.05 L1.24 834.15 L1.24 834.26 L1.37 834.26 L1.37 834.36 L1.37 834.36
							 Z" class="st13_3b276b54f0e0f"/>
			</g>
			<g    transform="translate(477.006,-27.2987)">
				
				<path d="M1.24 835.49 L1.24 835.6 L1.37 835.7 L1.37 835.8 L1.49 835.91 L2.11 836.94 L2.36 837.56 L2.61 837.76 L2.73
							 838.07 L2.98 838.38 L3.23 839 L3.48 839.31 L3.6 839.62 L3.85 839.83 L4.1 840.45 L4.72 841.48 L4.84 841.58
							 L4.84 841.68 L4.96 841.79 L4.96 841.89 L4.84 841.89 L4.84 841.79 L4.72 841.79 L4.59 841.68 L4.59 841.48
							 L4.34 841.37 L3.97 840.76 L3.72 840.55 L3.6 840.24 L3.35 840.03 L3.1 839.72 L2.98 839.52 L2.73 839.21
							 L2.48 839 L1.99 838.38 L1.86 838.18 L1.61 837.87 L1.37 837.66 L1.24 837.35 L0.99 837.14 L0.62 836.53
							 L0.37 836.42 L0.37 836.22 L0.25 836.11 L0.12 836.11 L0.12 835.91 L0 835.8 L0 835.6 L0.12 835.6 L0.12
							 835.39 L0.25 835.39 L0.25 835.29 L0.5 835.29 L0.5 835.18 L0.74 835.18 L0.87 835.29 L0.99 835.29 L1.12
							 835.39 L1.24 835.39 L1.24 835.49 L1.24 835.49 Z" class="st13_3b276b54f0e0f"/>
			</g>
			<g    transform="translate(476.509,-27.1955)">
				
				<path d="M0.99 837.04 L0.99 837.14 L1.12 837.14 L1.12 837.25 L1.37 837.45 L1.49 837.66 L1.61 837.76 L1.99 838.38
							 L2.23 838.59 L2.36 838.79 L2.61 839 L2.73 839.21 L2.98 839.52 L3.23 839.93 L3.48 840.14 L3.6 840.34
							 L3.85 840.55 L4.22 841.17 L4.34 841.27 L4.47 841.48 L4.72 841.68 L4.72 841.79 L4.84 841.79 L4.84 841.89
							 L4.72 841.89 L4.47 841.68 L4.47 841.58 L4.34 841.48 L4.1 841.37 L3.97 841.17 L3.23 840.55 L3.1 840.34
							 L2.61 839.93 L2.48 839.72 L1.74 839.1 L1.61 838.9 L0.87 838.28 L0.74 838.07 L0.5 837.97 L0.37 837.87
							 L0.37 837.76 L0 837.45 L0 837.14 L0.25 836.94 L0.37 836.94 L0.37 836.83 L0.74 836.83 L0.87 836.94 L0.99
							 837.04 L0.99 837.04 Z" class="st13_3b276b54f0e0f"/>
			</g>
			<g    transform="translate(476.385,-26.9892)">
				
				<path d="M0.87 838.38 L1.49 838.9 L1.61 839.1 L1.86 839.31 L1.99 839.52 L2.23 839.62 L2.36 839.83 L2.61 839.93 L2.85
							 840.34 L3.1 840.45 L3.23 840.65 L3.48 840.76 L3.6 840.96 L3.85 841.17 L3.97 841.37 L4.59 841.89 L4.47
							 841.89 L4.34 841.79 L4.22 841.79 L4.22 841.68 L4.1 841.58 L3.97 841.58 L3.85 841.48 L3.6 841.37 L3.1
							 840.96 L2.85 840.86 L2.36 840.45 L2.11 840.34 L1.74 840.03 L1.49 839.93 L0.99 839.52 L0.74 839.41 L0.62
							 839.31 L0.5 839.31 L0.37 839.21 L0.37 839.1 L0.25 839.1 L0 838.9 L0 838.49 L0.12 838.49 L0.12 838.38
							 L0.25 838.38 L0.25 838.28 L0.74 838.28 L0.87 838.38 L0.87 838.38 Z" class="st13_3b276b54f0e0f"/>
			</g>
			<g    transform="translate(484.081,-27.4018)">
				
				<path d="M0.62 833.12 L0.62 833.95 L0.5 834.15 L0.5 835.49 L0.37 835.91 L0.37 837.56 L0.25 837.87 L0.25 839.1 L0.12
							 839.52 L0.12 840.86 L0 841.06 L0 841.89 L0.12 841.89 L0.12 841.68 L0.25 841.48 L0.25 841.06 L0.37 840.86
							 L0.5 840.55 L0.5 840.24 L0.62 839.93 L0.62 839.52 L0.74 839.1 L0.87 838.79 L0.99 838.38 L0.99 837.97
							 L1.24 837.14 L1.24 836.73 L1.37 836.32 L1.49 836.01 L1.61 835.6 L1.61 835.18 L1.86 834.57 L1.86 834.26
							 L1.99 834.05 L1.99 833.64 L2.11 833.43 L2.11 832.91 L1.99 832.81 L1.99 832.71 L1.86 832.71 L1.86 832.61
							 L1.61 832.61 L1.61 832.5 L1.12 832.5 L0.99 832.61 L0.87 832.61 L0.87 832.71 L0.74 832.81 L0.74 832.91
							 L0.62 832.91 L0.62 833.02 L0.62 833.12 L0.62 833.12 Z" class="st13_3b276b54f0e0f"/>
			</g>
			<g    transform="translate(484.577,-27.4018)">
				
				<path d="M1.99 833.64 L1.99 833.84 L1.86 833.95 L1.86 834.36 L1.74 834.67 L1.74 834.98 L1.61 835.18 L1.49 835.6 L1.49
							 835.91 L1.37 836.22 L1.12 837.04 L1.12 837.35 L0.87 838.18 L0.87 838.49 L0.62 839.31 L0.5 839.62 L0.5
							 839.93 L0.37 840.34 L0.37 840.65 L0.25 840.86 L0.12 841.17 L0.12 841.58 L0 841.68 L0 841.89 L0.12 841.89
							 L0.12 841.79 L0.25 841.68 L0.25 841.58 L0.37 841.37 L0.37 841.17 L0.5 840.96 L1.12 839.41 L1.24 839
							 L1.49 838.69 L1.61 838.28 L1.74 837.97 L1.99 837.14 L2.23 836.83 L2.36 836.42 L2.98 834.87 L3.1 834.67
							 L3.1 834.46 L3.23 834.26 L3.23 834.15 L3.35 834.05 L3.35 833.53 L3.23 833.53 L3.23 833.43 L2.98 833.22
							 L2.85 833.22 L2.73 833.12 L2.48 833.12 L2.48 833.22 L2.23 833.22 L2.23 833.33 L2.11 833.33 L2.11 833.43
							 L1.99 833.53 L1.99 833.64 L1.99 833.64 Z" class="st13_3b276b54f0e0f"/>
			</g>
			<g    transform="translate(485.074,-27.4018)">
				
				<path d="M2.98 834.36 L2.98 834.46 L2.85 834.57 L2.85 834.67 L2.73 834.87 L2.73 835.08 L2.48 835.49 L1.86 837.04
							 L1.74 837.45 L1.61 837.76 L1.49 838.18 L1.24 838.79 L1.12 839.21 L0.5 840.76 L0.25 841.17 L0.25 841.37
							 L0.12 841.58 L0.12 841.68 L0 841.79 L0 841.89 L0.12 841.89 L0.12 841.79 L0.25 841.68 L0.25 841.58 L0.37
							 841.37 L0.5 841.27 L0.62 841.06 L0.74 840.76 L0.87 840.55 L1.12 840.24 L1.37 839.62 L1.61 839.31 L1.74
							 839 L2.23 838.38 L2.36 837.97 L2.61 837.66 L2.73 837.35 L2.98 837.04 L3.23 836.42 L3.48 836.11 L3.6
							 835.91 L3.72 835.6 L3.85 835.39 L3.97 835.29 L4.1 835.08 L4.1 834.98 L4.22 834.87 L4.22 834.26 L4.1
							 834.26 L4.1 834.15 L3.97 834.15 L3.97 834.05 L3.72 834.05 L3.72 833.95 L3.48 833.95 L3.35 834.05 L3.1
							 834.05 L3.1 834.15 L2.98 834.26 L2.98 834.36 L2.98 834.36 Z" class="st13_3b276b54f0e0f"/>
			</g>
			<g    transform="translate(485.322,-27.2987)">
				
				<path d="M3.85 835.49 L3.85 835.6 L3.72 835.7 L3.72 835.8 L3.6 835.91 L2.98 836.94 L2.85 837.25 L2.61 837.56 L2.48
							 837.76 L2.23 838.07 L1.99 838.69 L1.74 839 L1.61 839.31 L1.37 839.62 L1.24 839.83 L0.99 840.14 L0.87
							 840.45 L0.25 841.48 L0.12 841.58 L0.12 841.68 L0 841.79 L0 841.89 L0.25 841.89 L0.25 841.79 L0.37 841.79
							 L0.5 841.68 L0.5 841.48 L0.74 841.37 L1.12 840.76 L1.37 840.55 L1.49 840.24 L1.74 840.03 L1.99 839.72
							 L2.11 839.52 L2.36 839.21 L2.61 839 L3.1 838.38 L3.23 838.18 L3.48 837.87 L3.72 837.66 L3.85 837.35
							 L4.1 837.14 L4.47 836.53 L4.72 836.42 L4.72 836.22 L4.84 836.11 L4.96 836.11 L4.96 835.91 L5.09 835.91
							 L5.09 835.49 L4.96 835.49 L4.96 835.39 L4.84 835.39 L4.84 835.29 L4.72 835.29 L4.59 835.18 L4.34 835.18
							 L4.22 835.29 L4.1 835.29 L3.97 835.39 L3.85 835.39 L3.85 835.49 L3.85 835.49 Z" class="st13_3b276b54f0e0f"/>
			</g>
			<g    transform="translate(485.943,-27.1955)">
				
				<path d="M3.85 837.04 L3.85 837.14 L3.72 837.14 L3.72 837.25 L3.48 837.45 L3.35 837.66 L3.23 837.76 L2.85 838.38
							 L2.61 838.59 L2.48 838.79 L2.23 839 L2.11 839.21 L1.99 839.52 L1.74 839.72 L1.61 839.93 L1.37 840.14
							 L1.24 840.34 L0.99 840.55 L0.62 841.17 L0.5 841.27 L0.37 841.48 L0.12 841.68 L0.12 841.79 L0 841.79
							 L0 841.89 L0.12 841.89 L0.37 841.68 L0.37 841.58 L0.5 841.48 L0.74 841.37 L0.87 841.17 L1.61 840.55
							 L1.74 840.34 L2.48 839.72 L2.61 839.52 L3.1 839.1 L3.23 838.9 L3.97 838.28 L4.1 838.07 L4.34 837.97
							 L4.47 837.87 L4.47 837.76 L4.84 837.45 L4.84 837.14 L4.59 836.94 L4.47 836.94 L4.47 836.83 L4.1 836.83
							 L3.97 836.94 L3.85 837.04 L3.85 837.04 Z" class="st13_3b276b54f0e0f"/>
			</g>
			<g    transform="translate(486.439,-26.9892)">
				
				<path d="M3.72 838.38 L3.1 838.9 L2.98 839.1 L2.73 839.31 L2.61 839.52 L2.36 839.62 L2.23 839.83 L1.99 839.93 L1.74
							 840.34 L1.49 840.45 L1.37 840.65 L1.12 840.76 L0.99 840.96 L0.74 841.17 L0.62 841.37 L0 841.89 L0.25
							 841.89 L0.62 841.58 L0.74 841.58 L0.87 841.48 L1.12 841.37 L1.24 841.27 L1.37 841.06 L1.61 840.96 L1.74
							 840.86 L1.99 840.76 L2.11 840.55 L2.61 840.34 L2.73 840.14 L2.98 840.03 L3.1 839.93 L3.35 839.83 L3.48
							 839.62 L3.6 839.52 L3.85 839.41 L3.97 839.31 L4.1 839.31 L4.59 838.9 L4.59 838.49 L4.34 838.28 L3.85
							 838.28 L3.72 838.38 L3.72 838.38 Z" class="st13_3b276b54f0e0f"/>
			</g>
			<g    transform="translate(487.06,-26.886)">
				
				<path d="M2.61 839.93 L2.48 839.93 L2.48 840.03 L2.36 840.14 L2.23 840.14 L2.23 840.24 L2.11 840.34 L1.99 840.34
							 L1.24 840.96 L1.12 840.96 L0.5 841.48 L0.37 841.48 L0.25 841.58 L0.25 841.68 L0.12 841.68 L0 841.79
							 L0 841.89 L0 841.79 L0.12 841.79 L0.25 841.68 L0.37 841.68 L0.5 841.58 L0.62 841.58 L0.74 841.48 L0.87
							 841.48 L0.99 841.37 L1.12 841.37 L1.24 841.27 L1.37 841.27 L1.61 841.06 L1.74 841.06 L1.86 840.96 L1.99
							 840.96 L2.11 840.86 L2.23 840.86 L2.36 840.76 L2.48 840.76 L2.61 840.65 L2.73 840.65 L2.73 840.55 L2.85
							 840.55 L2.98 840.45 L2.98 840.34 L3.1 840.34 L3.1 839.93 L2.98 839.93 L2.98 839.83 L2.73 839.83 L2.73
							 839.93 L2.61 839.93 L2.61 839.93 Z" class="st13_3b276b54f0e0f"/>
			</g>
			<g    transform="translate(477.13,-26.886)">
				
				<path d="M0.62 839.93 L0.74 839.93 L0.74 840.03 L0.87 840.14 L0.99 840.14 L0.99 840.24 L1.12 840.34 L1.24 840.34
							 L2.61 841.48 L2.73 841.48 L2.85 841.58 L2.85 841.68 L2.98 841.68 L3.1 841.79 L3.1 841.89 L3.1 841.79
							 L2.98 841.79 L2.85 841.68 L2.73 841.68 L2.61 841.58 L2.48 841.58 L2.36 841.48 L2.23 841.48 L2.11 841.37
							 L1.99 841.37 L1.86 841.27 L1.74 841.27 L1.49 841.06 L1.37 841.06 L1.24 840.96 L1.12 840.96 L0.99 840.86
							 L0.87 840.86 L0.74 840.76 L0.62 840.76 L0.5 840.65 L0.37 840.65 L0.37 840.55 L0.25 840.55 L0.12 840.45
							 L0.12 840.34 L0 840.34 L0 840.03 L0.12 839.93 L0.12 839.83 L0.5 839.83 L0.5 839.93 L0.62 839.93 L0.62
							 839.93 Z" class="st13_3b276b54f0e0f"/>
			</g>
			<g    transform="translate(492.025,-23.6975)">
				
				<desc>H</desc>
				<v:textBlock v:margins="rect(0,0,0,0)" v:tabSpace="42.5197"/>
				<v:textRect cx="6.54284" cy="835.513" width="13.09" height="12.7541"/>
				<path d="M13.09 829.14 L0 829.14 L0 841.89 L13.09 841.89 L13.09 829.14" class="st14_3b276b54f0e0f"/>
				<text x="2.71" y="838.7" class="st15_3b276b54f0e0f" ><v:paragraph v:horizAlign="1"/><v:tabList/>H</text>			</g>
			<g    transform="translate(501.21,-23.6975)">
				
				<desc>U</desc>
				<v:textBlock v:margins="rect(0,0,0,0)" v:tabSpace="42.5197"/>
				<v:textRect cx="6.54284" cy="835.513" width="13.09" height="12.7541"/>
				<path d="M13.09 829.14 L0 829.14 L0 841.89 L13.09 841.89 L13.09 829.14" class="st14_3b276b54f0e0f"/>
				<text x="2.71" y="838.7" class="st15_3b276b54f0e0f" ><v:paragraph v:horizAlign="1"/><v:tabList/>U</text>			</g>
			<g    transform="translate(510.395,-23.6975)">
				
				<desc>A</desc>
				<v:textBlock v:margins="rect(0,0,0,0)" v:tabSpace="42.5197"/>
				<v:textRect cx="6.54284" cy="835.513" width="13.09" height="12.7541"/>
				<path d="M13.09 829.14 L0 829.14 L0 841.89 L13.09 841.89 L13.09 829.14" class="st14_3b276b54f0e0f"/>
				<text x="2.71" y="838.7" class="st15_3b276b54f0e0f" ><v:paragraph v:horizAlign="1"/><v:tabList/>A</text>			</g>
			<g    transform="translate(519.58,-23.6975)">
				
				<desc>W</desc>
				<v:textBlock v:margins="rect(0,0,0,0)" v:tabSpace="42.5197"/>
				<v:textRect cx="7.89723" cy="835.513" width="15.8" height="12.7541"/>
				<path d="M15.79 829.14 L0 829.14 L0 841.89 L15.79 841.89 L15.79 829.14" class="st14_3b276b54f0e0f"/>
				<text x="2.88" y="838.7" class="st15_3b276b54f0e0f" ><v:paragraph v:horizAlign="1"/><v:tabList/>W</text>			</g>
			<g    transform="translate(531.62,-23.6975)">
				
				<desc>E</desc>
				<v:textBlock v:margins="rect(0,0,0,0)" v:tabSpace="42.5197"/>
				<v:textRect cx="6.20566" cy="835.513" width="12.42" height="12.7541"/>
				<path d="M12.41 829.14 L0 829.14 L0 841.89 L12.41 841.89 L12.41 829.14" class="st14_3b276b54f0e0f"/>
				<text x="2.66" y="838.7" class="st15_3b276b54f0e0f" ><v:paragraph v:horizAlign="1"/><v:tabList/>E</text>			</g>
			<g    transform="translate(540.184,-23.6975)">
				
				<desc>I</desc>
				<v:textBlock v:margins="rect(0,0,0,0)" v:tabSpace="42.5197"/>
				<v:textRect cx="3.82805" cy="835.513" width="7.66" height="12.7541"/>
				<path d="M7.66 829.14 L0 829.14 L0 841.89 L7.66 841.89 L7.66 829.14" class="st14_3b276b54f0e0f"/>
				<text x="2.35" y="838.7" class="st15_3b276b54f0e0f" ><v:paragraph v:horizAlign="1"/><v:tabList/>I</text>			</g>
			<g    transform="translate(476.308,-13.8034)">
				
				<desc>Quidway</desc>
				<v:textBlock v:margins="rect(0,0,0,0)" v:tabSpace="42.5197"/>
				<v:textRect cx="23.3973" cy="836.139" width="46.8" height="11.5007"/>
				<path d="M46.79 830.39 L0 830.39 L0 841.89 L46.79 841.89 L46.79 830.39" class="st14_3b276b54f0e0f"/>
				<text x="4.76" y="839.01" class="st16_3b276b54f0e0f" ><v:paragraph v:horizAlign="1"/><v:tabList/>Quidway</text>			</g>
			<g    transform="translate(355.006,-10.404)">
				
				<path d="M0 828.21 L0 837.23 L1.71 837.23 L1.71 838.94 L4.67 838.94 L4.67 841.89 L11.68 841.89 L11.68 838.94 L14.63
							 838.94 L14.63 837.23 L18.06 837.23 L18.06 834.27 L16.35 834.27 L16.35 830.54 L14.63 830.54 L14.63 828.21
							 L0 828.21 L0 828.21 Z" class="st17_3b276b54f0e0f"/>
			</g>
			<g    transform="translate(515.28,-12.7653)">
				
				<desc>S3026</desc>
				<v:textBlock v:margins="rect(0,0,0,0)" v:tabSpace="42.5197"/>
				<v:textRect cx="16.5506" cy="836.582" width="33.11" height="10.6164"/>
				<path d="M33.1 831.27 L0 831.27 L0 841.89 L33.1 841.89 L33.1 831.27" class="st14_3b276b54f0e0f"/>
				<text x="3.76" y="839.23" class="st18_3b276b54f0e0f" ><v:paragraph v:horizAlign="1"/><v:tabList/>S3026</text>			</g>
		</g>
		<g    transform="translate(90.0676,-790.54)">
			
			<v:custProps>
				<v:cp  v:lbl="端口灯号" v:type="0"  v:val="VT4(1)"/>
			</v:custProps>
			<ellipse cx="2.58823" cy="839.296" rx="2.58823" ry="2.59374" class="st19_3b276b54f0e0f"/>
		</g>
		<g    transform="translate(100.026,-790.54)">
			
			<v:custProps>
				<v:cp  v:lbl="端口灯号" v:type="0"  v:val="VT4(2)"/>
			</v:custProps>
			<ellipse cx="2.58823" cy="839.296" rx="2.58823" ry="2.59374" class="st19_3b276b54f0e0f"/>
		</g>
		<g    transform="translate(109.59,-790.54)">
			
			<v:custProps>
				<v:cp  v:lbl="端口灯号" v:type="0"  v:val="VT4(3)"/>
			</v:custProps>
			<ellipse cx="2.58823" cy="839.296" rx="2.58823" ry="2.59374" class="st19_3b276b54f0e0f"/>
		</g>
		<g    transform="translate(119.548,-790.54)">
			
			<v:custProps>
				<v:cp  v:lbl="端口灯号" v:type="0"  v:val="VT4(4)"/>
			</v:custProps>
			<ellipse cx="2.58823" cy="839.296" rx="2.58823" ry="2.59374" class="st19_3b276b54f0e0f"/>
		</g>
		<g    transform="translate(129.753,-790.54)">
			
			<v:custProps>
				<v:cp  v:lbl="端口灯号" v:type="0"  v:val="VT4(5)"/>
			</v:custProps>
			<ellipse cx="2.58823" cy="839.296" rx="2.58823" ry="2.59374" class="st19_3b276b54f0e0f"/>
		</g>
		<g    transform="translate(139.711,-790.54)">
			
			<v:custProps>
				<v:cp  v:lbl="端口灯号" v:type="0"  v:val="VT4(6)"/>
			</v:custProps>
			<ellipse cx="2.58823" cy="839.296" rx="2.58823" ry="2.59374" class="st19_3b276b54f0e0f"/>
		</g>
		<g    transform="translate(149.275,-790.54)">
			
			<v:custProps>
				<v:cp  v:lbl="端口灯号" v:type="0"  v:val="VT4(7)"/>
			</v:custProps>
			<ellipse cx="2.58823" cy="839.296" rx="2.58823" ry="2.59374" class="st19_3b276b54f0e0f"/>
		</g>
		<g    transform="translate(159.233,-790.54)">
			
			<v:custProps>
				<v:cp  v:lbl="端口灯号" v:type="0"  v:val="VT4(8)"/>
			</v:custProps>
			<ellipse cx="2.58823" cy="839.296" rx="2.58823" ry="2.59374" class="st19_3b276b54f0e0f"/>
		</g>
		<g    transform="translate(180.776,-790.54)">
			
			<v:custProps>
				<v:cp  v:lbl="端口灯号" v:type="0"  v:val="VT4(9)"/>
			</v:custProps>
			<ellipse cx="2.58823" cy="839.296" rx="2.58823" ry="2.59374" class="st19_3b276b54f0e0f"/>
		</g>
		<g    transform="translate(190.735,-790.54)">
			
			<v:custProps>
				<v:cp  v:lbl="端口灯号" v:type="0"  v:val="VT4(10)"/>
			</v:custProps>
			<ellipse cx="2.58823" cy="839.296" rx="2.58823" ry="2.59374" class="st19_3b276b54f0e0f"/>
		</g>
		<g    transform="translate(200.298,-790.54)">
			
			<v:custProps>
				<v:cp  v:lbl="端口灯号" v:type="0"  v:val="VT4(11)"/>
			</v:custProps>
			<ellipse cx="2.58823" cy="839.296" rx="2.58823" ry="2.59374" class="st19_3b276b54f0e0f"/>
		</g>
		<g    transform="translate(210.257,-790.54)">
			
			<v:custProps>
				<v:cp  v:lbl="端口灯号" v:type="0"  v:val="VT4(12)"/>
			</v:custProps>
			<ellipse cx="2.58823" cy="839.296" rx="2.58823" ry="2.59374" class="st19_3b276b54f0e0f"/>
		</g>
		<g    transform="translate(220.461,-790.54)">
			
			<v:custProps>
				<v:cp  v:lbl="端口灯号" v:type="0"  v:val="VT4(13)"/>
			</v:custProps>
			<ellipse cx="2.58823" cy="839.296" rx="2.58823" ry="2.59374" class="st19_3b276b54f0e0f"/>
		</g>
		<g    transform="translate(230.42,-790.54)">
			
			<v:custProps>
				<v:cp  v:lbl="端口灯号" v:type="0"  v:val="VT4(14)"/>
			</v:custProps>
			<ellipse cx="2.58823" cy="839.296" rx="2.58823" ry="2.59374" class="st19_3b276b54f0e0f"/>
		</g>
		<g    transform="translate(239.983,-790.54)">
			
			<v:custProps>
				<v:cp  v:lbl="端口灯号" v:type="0"  v:val="VT4(15)"/>
			</v:custProps>
			<ellipse cx="2.58823" cy="839.296" rx="2.58823" ry="2.59374" class="st19_3b276b54f0e0f"/>
		</g>
		<g    transform="translate(249.942,-790.54)">
			
			<v:custProps>
				<v:cp  v:lbl="端口灯号" v:type="0"  v:val="VT4(16)"/>
			</v:custProps>
			<ellipse cx="2.58823" cy="839.296" rx="2.58823" ry="2.59374" class="st19_3b276b54f0e0f"/>
		</g>
		<g    transform="translate(271.239,-790.54)">
			
			<v:custProps>
				<v:cp  v:lbl="端口灯号" v:type="0"  v:val="VT4(17)"/>
			</v:custProps>
			<ellipse cx="2.58823" cy="839.296" rx="2.58823" ry="2.59374" class="st19_3b276b54f0e0f"/>
		</g>
		<g    transform="translate(281.197,-790.54)">
			
			<v:custProps>
				<v:cp  v:lbl="端口灯号" v:type="0"  v:val="VT4(18)"/>
			</v:custProps>
			<ellipse cx="2.58823" cy="839.296" rx="2.58823" ry="2.59374" class="st19_3b276b54f0e0f"/>
		</g>
		<g    transform="translate(290.761,-790.54)">
			
			<v:custProps>
				<v:cp  v:lbl="端口灯号" v:type="0"  v:val="VT4(19)"/>
			</v:custProps>
			<ellipse cx="2.58823" cy="839.296" rx="2.58823" ry="2.59374" class="st19_3b276b54f0e0f"/>
		</g>
		<g    transform="translate(300.719,-790.54)">
			
			<v:custProps>
				<v:cp  v:lbl="端口灯号" v:type="0"  v:val="VT4(20)"/>
			</v:custProps>
			<ellipse cx="2.58823" cy="839.296" rx="2.58823" ry="2.59374" class="st19_3b276b54f0e0f"/>
		</g>
		<g    transform="translate(310.924,-790.54)">
			
			<v:custProps>
				<v:cp  v:lbl="端口灯号" v:type="0"  v:val="VT4(21)"/>
			</v:custProps>
			<ellipse cx="2.58823" cy="839.296" rx="2.58823" ry="2.59374" class="st19_3b276b54f0e0f"/>
		</g>
		<g    transform="translate(320.882,-790.54)">
			
			<v:custProps>
				<v:cp  v:lbl="端口灯号" v:type="0"  v:val="VT4(22)"/>
			</v:custProps>
			<ellipse cx="2.58823" cy="839.296" rx="2.58823" ry="2.59374" class="st19_3b276b54f0e0f"/>
		</g>
		<g    transform="translate(330.446,-790.54)">
			
			<v:custProps>
				<v:cp  v:lbl="端口灯号" v:type="0"  v:val="VT4(23)"/>
			</v:custProps>
			<ellipse cx="2.58823" cy="839.296" rx="2.58823" ry="2.59374" class="st19_3b276b54f0e0f"/>
		</g>
		<g    transform="translate(340.404,-790.54)">
			
			<v:custProps>
				<v:cp  v:lbl="端口灯号" v:type="0"  v:val="VT4(24)"/>
			</v:custProps>
			<ellipse cx="2.58823" cy="839.296" rx="2.58823" ry="2.59374" class="st19_3b276b54f0e0f"/>
		</g>
	</g>
</svg>
